<svg width="40" height="40" viewBox="0 0 40 40" fill="none" xmlns="http://www.w3.org/2000/svg">
<path d="M29.5173 14.6133C30.7673 13.8633 31.6423 12.7383 32.1423 11.3633C32.6423 9.98828 32.6423 8.61328 32.2673 7.23828C31.8923 5.86328 31.0173 4.73828 29.8923 3.86328C28.7673 2.98828 27.2673 2.61328 25.8923 2.61328H14.3923C12.8923 2.61328 11.5173 3.11328 10.3923 3.86328C9.01731 4.73828 8.2673 5.98828 7.7673 7.23828C7.3923 8.61328 7.39231 10.1133 7.89231 11.3633C8.39231 12.7383 9.2673 13.8633 10.5173 14.6133C9.6423 15.2383 8.7673 15.9883 8.2673 16.9883C7.7673 17.9883 7.5173 18.9883 7.5173 20.1133C7.5173 21.2383 7.7673 22.2383 8.2673 23.2383C8.7673 24.2383 9.5173 24.9883 10.5173 25.6133C9.2673 26.3633 8.39231 27.4883 7.89231 28.8633C7.39231 30.2383 7.3923 31.6133 7.7673 32.9883C8.1423 34.3633 9.0173 35.4883 10.2673 36.3633C11.3923 37.2383 12.8923 37.6133 14.2673 37.6133C16.0173 37.6133 17.7673 36.8633 19.1423 35.7383C20.3923 34.4883 21.1423 32.8633 21.1423 31.1133V25.1133C22.3923 26.2383 24.0173 26.8633 25.6423 26.8633H25.7673C27.2673 26.8633 28.6423 26.3633 29.7673 25.6133C30.8923 24.7383 31.7673 23.6133 32.1423 22.2383C32.5173 20.8633 32.5173 19.4883 32.0173 18.1133C31.6423 16.4883 30.6423 15.3633 29.5173 14.6133ZM21.1423 4.73828H25.7673C26.3923 4.73828 27.0173 4.73828 27.5173 4.98828C28.1423 5.23828 28.6423 5.48828 29.0173 5.98828C29.5173 6.36328 29.7673 6.86328 30.0173 7.48828C30.2673 8.11328 30.3923 8.61328 30.3923 9.23828C30.3923 9.86328 30.2673 10.4883 30.0173 10.9883C29.7673 11.4883 29.3923 11.9883 29.0173 12.4883C28.5173 12.8633 28.0173 13.2383 27.5173 13.4883C26.8923 13.7383 26.2673 13.7383 25.7673 13.7383H21.1423V4.73828ZM14.2673 4.73828H18.8923V13.4883H14.2673C13.1423 13.4883 12.0173 12.9883 11.2673 12.1133C10.3923 11.3633 10.0173 10.2383 10.0173 9.11328C10.0173 7.98828 10.5173 6.86328 11.2673 6.11328C12.0173 5.36328 13.1423 4.86328 14.2673 4.73828ZM9.76731 20.1133C9.76731 18.9883 10.2673 17.8633 11.1423 16.9883C12.0173 16.1133 13.1423 15.7383 14.3923 15.7383H19.0173V24.4883H14.3923C13.1423 24.4883 12.0173 23.9883 11.1423 23.2383C10.2673 22.3633 9.76731 21.2383 9.76731 20.1133ZM18.8923 30.9883C18.8923 32.2383 18.3923 33.3633 17.5173 34.1133C16.6423 34.9883 15.5173 35.3633 14.2673 35.3633C13.6423 35.3633 13.0173 35.3633 12.5173 35.1133C11.8923 34.8633 11.3923 34.6133 11.0173 34.2383C10.5173 33.8633 10.2673 33.3633 10.0173 32.7383C9.7673 32.2383 9.6423 31.6133 9.6423 30.9883C9.6423 30.3633 9.7673 29.7383 10.0173 29.2383C10.2673 28.7383 10.6423 28.2383 11.0173 27.7383C11.5173 27.3633 12.0173 26.9883 12.5173 26.7383C13.1423 26.4883 13.7673 26.4883 14.2673 26.4883H18.8923V30.9883ZM25.7673 24.4883H25.6423C24.5173 24.4883 23.3923 23.9883 22.6423 23.1133C21.8923 22.2383 21.3923 21.2383 21.3923 20.1133C21.3923 18.9883 21.8923 17.8633 22.6423 17.1133C23.3923 16.2383 24.5173 15.8633 25.6423 15.7383H25.7673C26.3923 15.7383 27.0173 15.7383 27.5173 15.9883C28.1423 16.2383 28.6423 16.4883 29.0173 16.9883C29.5173 17.3633 29.7673 17.8633 30.0173 18.4883C30.2673 18.9883 30.3923 19.6133 30.3923 20.2383C30.3923 20.8633 30.2673 21.4883 30.0173 21.9883C29.7673 22.4883 29.3923 22.9883 29.0173 23.4883C28.5173 23.8633 28.0173 24.2383 27.5173 24.4883H25.7673Z" fill="black"/>
</svg>
