<svg width="40" height="40" viewBox="0 0 40 40" fill="none" xmlns="http://www.w3.org/2000/svg">
<path d="M20.0019 2.5C15.9448 2.52763 12.0232 3.96414 8.90822 6.56379C5.7932 9.16345 3.67826 12.7647 2.9252 16.7515C2.17214 20.7383 2.82776 24.8628 4.7799 28.4196C6.73203 31.9764 9.85938 34.7444 13.6269 36.25C13.373 34.593 13.373 32.907 13.6269 31.25L15.6894 22.5C15.363 21.7076 15.2014 20.8569 15.2144 20C15.2144 17.575 16.6269 15.75 18.3769 15.75C18.694 15.7452 19.0083 15.809 19.2984 15.9371C19.5884 16.0651 19.8474 16.2543 20.0575 16.4917C20.2676 16.7292 20.424 17.0092 20.5158 17.3127C20.6076 17.6162 20.6327 17.9359 20.5894 18.25C20.5894 19.75 19.6395 22 19.1395 24.075C19.0318 24.462 19.019 24.8692 19.1021 25.2621C19.1853 25.6551 19.3618 26.0222 19.6169 26.3325C19.872 26.6428 20.198 26.887 20.5675 27.0445C20.937 27.2021 21.339 27.2683 21.7394 27.2375C24.8394 27.2375 27.2395 23.95 27.2395 19.225C27.2706 18.2649 27.1013 17.3088 26.7424 16.4177C26.3834 15.5266 25.8426 14.7202 25.1546 14.0498C24.4665 13.3794 23.6463 12.8597 22.7462 12.524C21.8461 12.1883 20.886 12.0439 19.9269 12.1C18.9031 12.056 17.8809 12.2203 16.9223 12.5828C15.9638 12.9453 15.0887 13.4985 14.3502 14.209C13.6117 14.9195 13.025 15.7725 12.6256 16.7163C12.2263 17.6602 12.0226 18.6752 12.0269 19.7C12.0131 21.1277 12.4505 22.5232 13.2769 23.6875C13.337 23.7543 13.3798 23.8348 13.4016 23.922C13.4234 24.0091 13.4235 24.1003 13.4019 24.1875C13.2644 24.7375 12.9644 25.9375 12.9144 26.175C12.8644 26.4125 12.6519 26.5625 12.3269 26.4125C10.1394 25.3875 8.77695 22.2 8.77695 19.625C8.77695 14.1125 12.7894 9.0375 20.3394 9.0375C26.4019 9.0375 31.1269 13.3625 31.1269 19.15C31.1269 25.175 27.3769 30.025 22.0394 30.025C21.257 30.0522 20.4801 29.8835 19.7794 29.5343C19.0786 29.185 18.4763 28.6662 18.0269 28.025L16.9394 32.1875C16.4175 33.8049 15.6863 35.3471 14.7644 36.775C16.4643 37.2768 18.2297 37.5212 20.0019 37.5C24.6432 37.5 29.0944 35.6563 32.3763 32.3744C35.6582 29.0925 37.5019 24.6413 37.5019 20C37.5019 15.3587 35.6582 10.9075 32.3763 7.62563C29.0944 4.34374 24.6432 2.5 20.0019 2.5Z" fill="black"/>
</svg>
