<svg width="40" height="40" viewBox="0 0 40 40" fill="none" xmlns="http://www.w3.org/2000/svg">
<path d="M28.007 13.7914C29.0011 13.7914 29.807 12.9855 29.807 11.9914C29.807 10.9973 29.0011 10.1914 28.007 10.1914C27.0129 10.1914 26.207 10.9973 26.207 11.9914C26.207 12.9855 27.0129 13.7914 28.007 13.7914Z" fill="black"/>
<path d="M19.9994 12.2969C18.476 12.2969 16.9868 12.7486 15.7201 13.595C14.4534 14.4413 13.4662 15.6443 12.8832 17.0518C12.3002 18.4592 12.1477 20.0079 12.4449 21.5021C12.7421 22.9962 13.4757 24.3686 14.5529 25.4459C15.6301 26.5231 17.0026 27.2567 18.4967 27.5539C19.9908 27.8511 21.5395 27.6985 22.947 27.1156C24.3544 26.5326 25.5574 25.5453 26.4038 24.2787C27.2501 23.012 27.7019 21.5228 27.7019 19.9994C27.7022 18.9878 27.5032 17.986 27.1162 17.0514C26.7293 16.1167 26.1619 15.2675 25.4466 14.5522C24.7313 13.8368 23.882 13.2695 22.9474 12.8825C22.0127 12.4956 21.011 12.2965 19.9994 12.2969ZM19.9994 24.9994C19.0105 24.9994 18.0438 24.7061 17.2215 24.1567C16.3993 23.6073 15.7584 22.8264 15.38 21.9128C15.0015 20.9992 14.9025 19.9938 15.0955 19.0239C15.2884 18.054 15.7646 17.1631 16.4638 16.4638C17.1631 15.7646 18.054 15.2884 19.0239 15.0954C19.9938 14.9025 20.9992 15.0015 21.9128 15.38C22.8264 15.7584 23.6073 16.3993 24.1567 17.2215C24.7061 18.0438 24.9994 19.0105 24.9994 19.9994C24.9994 21.3255 24.4726 22.5972 23.5349 23.5349C22.5972 24.4726 21.3255 24.9994 19.9994 24.9994Z" fill="black"/>
<path d="M20 7.7025C24.005 7.7025 24.48 7.7175 26.0613 7.79C27.0124 7.80024 27.9546 7.9749 28.8462 8.30625C29.4931 8.5562 30.0806 8.93864 30.571 9.42901C31.0614 9.91939 31.4438 10.5069 31.6937 11.1538C32.0251 12.0454 32.1998 12.9876 32.21 13.9388C32.2825 15.52 32.2975 15.995 32.2975 20.0012C32.2975 24.0075 32.2825 24.48 32.21 26.0613C32.1998 27.0124 32.0251 27.9546 31.6937 28.8462C31.4438 29.4931 31.0614 30.0806 30.571 30.571C30.0806 31.0614 29.4931 31.4438 28.8462 31.6937C27.9546 32.0251 27.0124 32.1998 26.0613 32.21C24.48 32.2825 24.005 32.2975 20 32.2975C15.995 32.2975 15.52 32.2825 13.9388 32.21C12.9876 32.1998 12.0454 32.0251 11.1538 31.6937C10.5069 31.4438 9.91939 31.0614 9.42901 30.571C8.93864 30.0806 8.5562 29.4931 8.30625 28.8462C7.9749 27.9546 7.80024 27.0124 7.79 26.0613C7.7175 24.48 7.7025 24.005 7.7025 20C7.7025 15.995 7.7175 15.52 7.79 13.9388C7.80024 12.9876 7.9749 12.0454 8.30625 11.1538C8.5562 10.5069 8.93864 9.91939 9.42901 9.42901C9.91939 8.93864 10.5069 8.5562 11.1538 8.30625C12.0454 7.9749 12.9876 7.80024 13.9388 7.79C15.52 7.7175 15.995 7.7025 20 7.7025ZM20 5C15.9262 5 15.415 5.0175 13.815 5.09C12.571 5.11495 11.3402 5.3508 10.175 5.7875C9.17856 6.17314 8.27362 6.76259 7.5181 7.5181C6.76259 8.27362 6.17314 9.17856 5.7875 10.175C5.35066 11.3405 5.11481 12.5718 5.09 13.8163C5.0175 15.4163 5 15.925 5 20C5 24.075 5.0175 24.585 5.09 26.185C5.11495 27.4291 5.3508 28.6599 5.7875 29.825C6.17314 30.8214 6.76259 31.7264 7.5181 32.4819C8.27362 33.2374 9.17856 33.8269 10.175 34.2125C11.3405 34.6493 12.5718 34.8852 13.8163 34.91C15.4163 34.9825 15.9262 35 20 35C24.0737 35 24.585 34.9825 26.185 34.91C27.4295 34.8852 28.6607 34.6493 29.8263 34.2125C30.8227 33.8269 31.7276 33.2374 32.4831 32.4819C33.2387 31.7264 33.8281 30.8214 34.2138 29.825C34.6502 28.6594 34.8856 27.4282 34.91 26.1838C34.9825 24.5837 35 24.075 35 20C35 15.925 34.9825 15.415 34.91 13.815C34.885 12.571 34.6492 11.3402 34.2125 10.175C33.8269 9.17856 33.2374 8.27362 32.4819 7.5181C31.7264 6.76259 30.8214 6.17314 29.825 5.7875C28.6594 5.35109 27.4282 5.11566 26.1838 5.09125C24.5837 5.01625 24.075 5 20 5Z" fill="black"/>
</svg>
