<svg width="61" height="42" viewBox="0 0 61 42" fill="none" xmlns="http://www.w3.org/2000/svg">
<path d="M20.9375 0.0152547C21.0536 -0.0238245 21.2059 0.0179605 21.3216 0.0753131C21.3579 0.0931009 21.3395 0.172613 21.3646 0.188472C21.4135 0.219387 21.4591 0.180391 21.5075 0.217219C21.5236 0.229814 21.5036 0.355761 21.5204 0.366084C21.6126 0.421745 21.6997 0.389665 21.7931 0.416438C22.2529 0.548528 22.7048 0.595807 23.1702 0.653192C23.3237 0.672006 23.5103 0.786308 23.6688 0.736322C23.6873 0.730373 23.6762 0.619823 23.6798 0.610712C23.735 0.471225 23.7166 0.694402 23.7527 0.724054C23.8958 0.841131 24.0549 0.851313 24.1926 0.808648C24.2512 0.790173 24.1924 0.570593 24.2514 0.693841C24.2555 0.702169 24.2406 0.819565 24.2567 0.832086C24.2931 0.860247 24.3623 0.839264 24.3905 0.848565C24.4449 0.867085 24.4539 0.865904 24.5054 0.867242C24.5758 0.870092 24.6595 0.928449 24.735 0.901849C24.7511 0.895822 24.7298 0.775478 24.7555 0.754999C24.7812 0.734553 24.8492 0.744757 24.8722 0.773126C24.8951 0.801509 24.8854 0.896098 24.8894 0.917779C24.9228 1.10077 25.0016 0.847326 25.0117 0.841058C25.1963 0.73426 25.3547 0.87864 25.5281 0.878228C25.6597 0.877609 25.8004 0.829944 25.9256 0.83648C26.0748 0.844733 26.2012 0.909946 26.3461 0.898736C26.3614 0.897691 26.3435 0.756194 26.3622 0.754632C26.5607 0.738167 26.7577 0.753591 26.9554 0.849114C26.9752 0.858819 26.9496 0.983052 26.9694 1.00018C27.0907 1.10227 27.2825 1.34754 27.3545 0.806634C27.4366 0.827755 27.5363 0.849578 27.6097 0.958611C27.6571 1.02879 27.6111 1.16413 27.6693 1.10638C27.6824 1.09351 27.6653 0.974986 27.685 0.964654C27.7679 0.921264 27.8584 0.959791 27.9404 0.898553C27.957 0.885818 27.9525 0.779616 27.9572 0.760492C27.9969 0.605612 28.063 0.861638 28.0774 0.880242C28.1871 1.01897 28.2672 0.964379 28.3694 0.967766C28.3932 0.968612 28.3651 0.825959 28.3879 0.821649C28.5063 0.801203 28.6289 0.813464 28.7448 0.876763C28.7706 0.891186 28.7469 1.0127 28.7592 1.02581C28.8135 1.08214 28.8256 0.852626 28.8777 0.902215C28.8887 0.912374 28.8825 1.0164 28.8845 1.02782C28.9158 1.20717 28.9431 0.953052 28.9511 0.947442C29.0532 0.870784 29.1184 1.13607 29.2169 1.0985C29.2287 1.09374 29.2021 0.962118 29.2353 0.95678C29.4561 0.920444 29.6896 0.956602 29.9082 1.06188C29.9421 1.07807 29.9179 1.17695 29.92 1.18914C29.9549 1.37959 29.9774 1.12441 29.9885 1.1148C30.0759 1.04562 30.1576 1.25962 30.217 0.955681C30.5872 1.06116 30.9557 0.89048 31.3228 1.16277C31.3275 1.16593 31.3191 1.2916 31.3284 1.29736C31.4406 1.36792 31.419 1.1726 31.4932 0.933709C31.5119 0.873723 31.5688 1.16214 31.5738 1.18328C31.5921 1.26119 31.5731 1.44816 31.5793 1.46325C31.63 1.58172 31.6218 0.963389 31.6903 0.963189C31.6924 0.96422 31.6834 1.07803 31.6892 1.08935C31.6995 1.10989 31.7098 1.10343 31.72 1.10191L32.0535 1.05364L32.1181 1.5C32.1192 1.50745 32.1177 1.51486 32.1012 1.52223C32.0105 1.56224 31.7101 1.5765 31.8849 1.63761C31.9076 1.64534 32.2584 1.63353 32.2418 1.6947C32.2349 1.71909 32.2409 1.82704 32.2182 1.85729C32.1955 1.88751 32.0824 1.86676 32.0776 1.86891C31.9281 1.95033 31.8661 1.91946 31.6449 1.96025C31.4244 2.00104 31.9502 1.98973 32.0089 2.00635C32.0674 2.02301 31.9441 2.0827 31.9012 2.09737C31.8583 2.11203 31.7865 2.09375 31.7622 2.10678C31.6037 2.19323 32.0232 2.14473 32.1067 2.17321C32.3043 2.24036 31.9143 2.29266 31.8761 2.35414C31.8658 2.37078 31.9546 2.3572 31.9629 2.37201C31.9946 2.43068 31.873 2.46596 31.9845 2.5327C32.0027 2.54362 32.2371 2.59758 32.0651 2.6325C32.0403 2.63745 31.9431 2.62339 31.9214 2.64839C31.8887 2.68574 31.8675 2.75304 31.8999 2.79319C31.924 2.82283 32.0841 2.78885 32.0343 2.82616C32.0121 2.84274 31.9185 2.81201 31.8846 2.84317C31.8507 2.87415 31.8548 2.95338 31.858 2.98353C31.8613 3.01362 31.9828 2.99715 31.9909 2.99958C32.0378 3.0143 32.0964 3.07206 32.0962 3.07716C32.1111 3.3346 31.9063 3.57199 31.9741 3.82264C31.9792 3.84231 32.1073 3.8292 32.1094 3.83221C32.1631 3.89954 31.8226 3.84645 31.7086 3.89349C31.9685 3.88669 31.9214 3.91446 31.9499 3.96189C31.9639 3.98475 32.0645 3.9723 32.0748 3.97439C32.2276 4.00829 32.0302 4.03189 31.9898 4.03797C31.8413 4.06042 32.0168 4.08485 31.9175 4.10012C31.819 4.11539 31.6728 4.08025 31.6747 4.12575C31.7678 4.1385 32.0109 4.10473 32.0503 4.13927C32.1993 4.26958 32.0086 4.51284 31.9887 4.61762C31.9689 4.72218 31.9861 4.75596 31.9525 4.81689C31.8917 4.92696 32.0721 4.88662 32.1546 4.95497C32.2372 5.02351 31.7934 4.99019 31.698 5.00004C31.6026 5.00971 31.7008 5.02027 31.6484 5.03231C31.5959 5.0443 31.5311 5.01834 31.5114 5.04654C31.4917 5.07476 31.6614 5.15191 31.7611 5.16192C31.9725 5.18306 32.1943 5.14829 32.1164 5.22296C32.1117 5.22726 31.995 5.21332 31.9833 5.22977C31.8934 5.36037 31.8878 5.49606 31.8084 5.6265C31.7973 5.64444 31.6675 5.6284 31.6595 5.63884C31.5765 5.74757 31.7954 5.7087 32.0386 5.76829C31.7149 5.75491 31.517 5.78787 31.5151 5.87038C31.5138 5.91999 31.6551 5.91145 31.7547 5.94353C31.7848 5.95316 31.6877 5.98826 31.7542 5.99462C31.9715 6.01559 32.2147 5.98253 32.1178 6.06761C32.1132 6.07134 31.9943 6.05945 31.9871 6.07235C31.94 6.15572 32.1672 6.16569 32.1947 6.25581C32.2163 6.32645 32.0778 6.45208 32.0552 6.53251C31.6914 6.53082 31.7747 6.60679 32.0256 6.63761C32.0153 6.6898 32.0295 6.74618 31.9948 6.79663C31.983 6.814 31.8776 6.80259 31.8662 6.80478C31.6877 6.83835 31.9318 6.86105 31.9413 6.87231C32.0343 6.99442 31.8494 7.09391 32.0301 7.21045C32.0366 7.21459 32.2894 7.22129 32.1048 7.25244C32.0921 7.25446 31.9771 7.21597 31.9682 7.27079C31.9593 7.32562 31.8238 7.42898 31.941 7.5051C31.9691 7.52352 32.1743 7.57011 32.014 7.60751C31.9922 7.61249 31.9198 7.60704 31.8794 7.61423C31.7509 7.63748 32.0064 7.65017 31.7893 7.67749C31.5723 7.70482 31.4098 7.76165 31.5595 7.83842C31.5639 7.84086 31.7664 7.85904 31.7632 7.88318C31.7579 7.92172 31.7157 7.97642 31.717 8.01666C31.7177 8.03593 31.8434 8.0236 31.8457 8.02694C31.9162 8.15649 31.8041 8.24868 31.7555 8.38746C31.7463 8.4129 31.9177 8.48601 31.7822 8.53526C31.6338 8.58934 31.0166 8.53377 31.1637 8.65807C31.2225 8.70821 32.0055 8.77168 31.5998 8.86178C31.7004 9.03651 31.4927 9.19811 31.6363 9.37334C31.6426 9.38122 31.8612 9.40613 31.8582 9.42466C31.8534 9.45216 31.7512 9.46726 31.7445 9.4869C31.7137 9.56918 31.8011 9.64448 31.7875 9.72382C31.7826 9.75394 31.677 9.7434 31.6711 9.77933C31.6653 9.81523 31.8043 9.83917 31.7372 9.88783C31.686 9.92457 31.4017 9.96131 31.3686 10.0101C31.649 10.0119 31.6432 10.0454 31.7172 10.105C31.7316 10.1164 31.8292 10.1041 31.841 10.1096C31.8913 10.1316 31.8104 10.152 31.8652 10.1729C31.8783 10.178 31.9741 10.1782 31.9902 10.1824C32.1312 10.2178 31.9158 10.2761 31.8783 10.2861C31.7359 10.3244 31.8604 10.3424 31.8044 10.3718C31.7483 10.4012 31.6782 10.3572 31.6441 10.3916C31.5738 10.4627 31.5892 10.5541 31.5848 10.6263C31.5837 10.6552 31.7115 10.6355 31.7143 10.6396C31.7467 10.6992 31.6107 10.7595 31.8653 10.7926C31.207 10.8339 31.9292 10.8285 31.7974 10.9137C31.7867 10.9204 31.4754 10.929 31.4297 10.9032C31.3841 10.8774 31.4814 10.8384 31.4101 10.8026C31.3934 10.7941 31.1017 10.7456 31.084 10.739C30.9459 10.6872 31.4111 10.6799 31.4367 10.6771C31.7124 10.646 31.3982 10.5868 31.3764 10.5711C31.2769 10.4998 31.3424 10.4391 31.2713 10.3794C31.2254 10.3403 30.9207 10.3365 30.93 10.3058C30.9609 10.2039 31.386 10.1683 31.0174 10.0722C30.9388 10.0516 30.6057 10.0721 30.8676 9.9983C30.8841 9.99366 31.1237 9.93886 30.9721 9.9072C30.953 9.90322 30.856 9.90335 30.8478 9.89811C30.7951 9.86296 30.8724 9.83952 30.8354 9.80123C30.7983 9.76295 30.7431 9.71692 30.776 9.67321C30.7957 9.64686 30.9766 9.61306 31.0209 9.60045C31.1484 9.56485 30.9393 9.52667 31.0937 9.50461C31.249 9.48236 31.4847 9.52585 31.585 9.46752C31.3328 9.46536 31.074 9.4604 30.8204 9.45692C30.8292 9.32909 30.9108 9.20331 30.8996 9.07505C30.898 9.05915 30.7624 9.07541 30.7572 9.05837C30.7356 8.98645 30.8323 8.92363 30.7938 8.84905C30.7635 8.79131 30.6199 8.72801 30.5838 8.66764C30.8724 8.63076 30.7744 8.54119 30.8008 8.47611C30.8099 8.45331 30.8869 8.45484 30.9121 8.43863C31.0051 8.37747 30.7501 8.40613 30.7099 8.38936C30.5387 8.31743 31.1159 8.31127 31.1016 8.22646C31.101 8.22197 30.7934 8.16704 30.7742 8.15948C30.6493 8.11141 30.8813 8.15152 30.904 8.12144C30.9456 8.06652 31.0191 8.02836 30.9289 7.96392C30.9022 7.94513 30.7105 7.90005 30.8588 7.86356C30.8782 7.85877 30.9799 7.86142 30.9859 7.85755C31.0852 7.78762 30.7656 7.78578 30.6574 7.74582C30.5492 7.70584 30.7698 7.64411 30.8334 7.63155C30.9978 7.59868 30.9036 7.65673 30.9198 7.65851C31.1119 7.67942 31.0788 7.6344 31.095 7.6C31.4083 7.59502 31.3895 7.5469 31.1106 7.56433C31.0801 7.56631 31.1093 7.59309 31.095 7.6C30.7876 7.5698 30.7482 7.51692 31.0355 7.45852C31.1701 7.43119 31.3271 7.45703 31.2697 7.37399C31.2438 7.3363 31.028 7.35086 30.9692 7.3176C30.835 7.24162 31.0363 7.14289 31.0046 7.06455C30.993 7.03612 30.875 7.06382 30.863 7.04439C30.831 6.99282 30.9196 6.94735 30.8742 6.89556C30.8699 6.89087 30.7463 6.90233 30.7447 6.88623C30.7304 6.76415 30.8096 6.65784 30.8117 6.53038C30.8128 6.46879 30.7446 6.35868 30.7583 6.29488C30.7813 6.1843 30.9611 6.04827 30.9174 5.95381C30.8894 5.8922 30.7658 5.90572 30.6816 5.87932C30.5183 5.82838 30.8108 5.73821 30.8561 5.72606C30.8576 5.72569 30.8867 5.77871 30.9502 5.75042C31.0824 5.73397 30.8566 5.72666 30.8561 5.72606C30.8853 5.71809 30.9134 5.61218 30.8898 5.59116C30.8768 5.57973 30.7597 5.58612 30.7552 5.58016C30.6503 5.43855 30.6206 5.29669 30.6753 5.15306C30.6777 5.15053 30.8087 5.15434 30.8127 5.14839C30.8709 5.06524 30.7106 5.012 30.6155 4.94342C30.5203 4.87485 30.5522 4.82048 30.7771 4.77989C30.7488 4.72815 30.8483 4.65392 30.9086 4.61121C30.969 4.5685 30.7139 4.56254 30.7088 4.55878C30.5474 4.44156 30.6934 4.3738 30.7162 4.25219C30.7274 4.19438 30.6904 4.07969 30.6625 4.01709C30.64 3.96762 30.6998 3.93781 30.6616 3.89223C30.6565 3.88606 30.5429 3.89229 30.5386 3.89041C30.4027 3.83953 30.6803 3.86398 30.7299 3.85348C30.9102 3.81539 31.0063 3.79187 30.9214 3.72671C30.902 3.71169 30.5022 3.66791 30.4789 3.64052C30.4492 3.6049 30.5925 3.61834 30.5578 3.58105C30.5549 3.57786 30.4665 3.57852 30.4704 3.55551C30.4874 3.44867 30.5388 3.33219 30.5299 3.22116C30.5291 3.206 30.3889 3.22544 30.3853 3.20353C30.3687 3.10071 30.3739 2.98801 30.4395 2.88785C30.4561 2.86319 30.5543 2.87865 30.5834 2.87329C30.7598 2.84044 30.5035 2.79384 30.4986 2.78615C30.3755 2.60275 30.6074 2.46239 30.497 2.27546C30.4905 2.26528 30.2158 2.18696 30.4514 2.15202C30.4671 2.14962 30.7081 2.11505 30.5433 2.08448C30.533 2.08258 30.4089 2.10413 30.4216 2.06653C30.4342 2.02894 30.3513 1.96843 30.4877 1.91676C30.5306 1.9004 30.7711 1.86173 30.5794 1.81293C30.566 1.80975 30.1326 1.73441 30.4316 1.70751C30.4808 1.70316 30.7973 1.70772 30.6351 1.64947C30.6036 1.63834 30.533 1.65855 30.4889 1.62923C30.4334 1.59247 30.48 1.54595 30.4216 1.5L31.72 2.79843C31.7098 2.81141 31.6996 2.82958 31.6896 2.85521C31.6799 2.88017 31.6389 3.09496 31.6061 2.93193C31.6009 2.9064 31.6107 2.80075 31.5933 2.78893C31.5107 2.73221 31.4243 2.80288 31.3404 2.72978C31.3107 2.7041 31.3259 2.53331 31.295 2.48754C31.264 2.44178 31.2016 2.39777 31.1692 2.47582C31.1368 2.5539 31.1722 2.82611 31.1237 2.84789C30.9126 2.94249 30.7036 2.78281 30.4929 2.75945C30.4616 2.75596 30.4875 2.85336 30.4415 2.85521C30.2717 2.86246 29.9785 2.95378 29.8311 2.74681C29.7131 2.58104 29.8616 2.45484 29.7714 2.38738C29.7279 2.3552 29.6808 2.67166 29.6703 2.68163C29.5676 2.78283 29.4963 2.64265 29.4039 2.68566C29.3848 2.69458 29.4035 2.82285 29.3873 2.82903C29.3318 2.85127 29.2735 2.79402 29.2205 2.80449C29.1967 2.80948 29.2011 2.90745 29.1792 2.89989C29.1269 2.88293 29.0806 2.84175 29.0295 2.74993C29.0249 2.74156 29.0562 2.61969 29.0175 2.61516C28.9548 2.60817 28.877 2.51759 28.8048 2.61113C28.7834 2.63927 28.7826 2.86317 28.7366 2.70854C28.727 2.67625 28.7393 2.4074 28.6857 2.6397C28.6767 2.6783 28.5866 2.99163 28.5425 2.78966C28.5308 2.7365 28.5011 2.5165 28.4753 2.55107C28.4718 2.55659 28.4858 2.67686 28.4645 2.68859C28.3893 2.72784 28.3106 2.715 28.2333 2.75267C28.2127 2.76297 28.2434 2.88742 28.2127 2.89879C28.1282 2.93025 28.0227 2.89856 27.94 2.85961C27.9096 2.84501 27.9306 2.74192 27.9284 2.7307C27.8928 2.54823 27.8717 2.79452 27.8599 2.80889C27.7863 2.89488 27.7302 2.77918 27.6624 2.8098C27.6437 2.81794 27.657 2.93538 27.6532 2.94585C27.6146 3.04816 27.6434 2.83726 27.6189 2.81401C27.5504 2.74819 27.474 2.75762 27.4047 2.77263C27.3792 2.77832 27.4078 2.91449 27.385 2.91802C27.2498 2.94148 27.1092 2.92845 26.9773 2.85338C26.9524 2.839 26.968 2.73414 26.9629 2.71019C26.9272 2.54264 26.8749 2.77118 26.8628 2.79296C26.8081 2.89236 26.7868 2.79964 26.7385 2.81694C26.5024 2.90311 26.2109 2.8417 25.9881 2.80376C25.6977 2.75493 25.4723 2.65518 25.1954 2.68108C25.1778 2.68259 25.1955 2.82209 25.1804 2.82518C24.9845 2.85881 24.7916 2.8043 24.5953 2.84459C24.5792 2.84765 24.6024 2.97989 24.5766 2.98924C24.5236 3.00936 24.4564 3.00217 24.4028 2.95995C24.3766 2.9396 24.4117 2.82613 24.3854 2.80797C24.3241 2.76543 24.2584 2.75601 24.1954 2.77721C24.1686 2.78652 24.2091 2.92177 24.1742 2.92333C23.937 2.93674 23.7041 2.96004 23.4643 2.7849C23.4479 2.77287 23.4335 2.498 23.3985 2.55071C23.3959 2.62699 23.3961 2.71673 23.3949 2.79827C23.0496 2.84219 22.7078 2.7469 22.3615 2.73216C22.3469 2.73158 22.3721 2.87722 22.3439 2.87682C22.1803 2.87466 22.0214 2.91501 21.8541 2.77025C21.8375 2.75609 21.846 2.49987 21.797 2.53862C21.7884 2.54569 21.7147 2.57987 21.6957 2.63549C21.6931 2.64388 21.7065 2.76347 21.6828 2.76696C21.5448 2.78512 21.4002 2.75781 21.2624 2.68474C21.2402 2.67272 21.2638 2.54536 21.248 2.53569C21.1357 2.46809 21.0135 2.5649 20.9061 2.44927C20.8343 2.37141 20.8609 2.15126 20.8227 1.93456C20.8173 1.90399 20.7728 1.89914 20.7705 1.77306C20.7646 1.45602 20.7862 1.10886 20.7773 0.770929C20.7755 0.69814 20.7159 0.776538 20.7511 0.600641C20.7536 0.588869 20.7968 0.53049 20.8074 0.47082C20.8149 0.429565 20.8015 0.301341 20.8166 0.24853C20.8317 0.195769 20.8483 0.303253 20.8734 0.241206C20.8984 0.178391 20.8874 0.032522 20.9375 0.0152547ZM31.1783 4.41889C31.3008 4.37934 30.8522 4.37351 30.9595 4.41628C30.9652 4.41835 31.1723 4.42093 31.1783 4.41889ZM31.2492 9.20403C31.4471 9.15233 31.1561 9.11694 31.0033 9.15342C30.8506 9.18989 31.1892 9.21978 31.2492 9.20403ZM31.3937 9.74018C31.5497 9.67976 30.9135 9.67024 31.0421 9.73497C31.0494 9.73873 31.3846 9.74372 31.3937 9.74018ZM20.9998 1.87285C20.9992 1.8669 20.9672 1.86109 20.9665 1.86699C20.9494 2.00948 21.0134 2.02099 20.9998 1.87285ZM31.5509 10.2722C31.637 10.2534 31.5377 10.199 31.4306 10.2225C31.3446 10.2414 31.4439 10.2957 31.5509 10.2722ZM31.6571 2.3558C31.6638 2.35518 31.6698 2.33225 31.6321 2.33271C31.5103 2.33427 31.5447 2.36618 31.6571 2.3558ZM31.5583 11.1765C31.5822 11.0429 32.1077 10.9619 32.0484 11.1074C32.0377 11.1337 31.8809 11.0506 31.8335 11.0841C31.7472 11.1455 32.0771 11.1862 31.9003 11.2489C31.8679 11.2602 31.5557 11.1841 31.5575 11.1763C31.5578 11.1763 31.558 11.1764 31.5583 11.1765ZM31.7172 4.39612C31.7231 4.39533 31.7288 4.36359 31.7229 4.36282C31.5804 4.34564 31.569 4.40958 31.7172 4.39612ZM31.2379 1.28545C31.2361 1.27281 31.1625 1.26099 31.1601 1.27264C31.1216 1.50555 31.2706 1.53014 31.2379 1.28545ZM32.0455 6.53378C32.1888 6.56841 32.2057 6.60984 32.0257 6.63745C32.0353 6.60303 32.0367 6.56838 32.0455 6.53378ZM0.0929645 26.8278C0.147657 26.7887 0.21935 26.8305 0.273835 26.8878C0.290911 26.9056 0.282265 26.9851 0.294052 27.001C0.317106 27.0319 0.338584 26.9929 0.361367 27.0297C0.368917 27.0423 0.359518 27.1683 0.367435 27.1786C0.410819 27.2342 0.451862 27.2022 0.49581 27.2289C0.712284 27.361 0.925074 27.4083 1.1442 27.4657C1.21645 27.4845 1.30428 27.5988 1.3789 27.5488C1.38762 27.5429 1.38242 27.4323 1.38408 27.4232C1.41008 27.2837 1.40143 27.5069 1.41841 27.5366C1.48578 27.6536 1.56069 27.6638 1.62553 27.6211C1.65311 27.6027 1.62545 27.3831 1.65323 27.5063C1.65515 27.5147 1.64816 27.6321 1.65572 27.6446C1.67287 27.6727 1.70542 27.6518 1.71872 27.6611C1.74434 27.6796 1.74858 27.6784 1.77281 27.6797C1.80594 27.6826 1.84535 27.7409 1.8809 27.7143C1.88848 27.7083 1.87844 27.588 1.89054 27.5675C1.90265 27.5471 1.93469 27.5573 1.94549 27.5856C1.9563 27.614 1.9517 27.7086 1.95361 27.7303C1.96934 27.9133 2.0064 27.6598 2.01117 27.6536C2.09812 27.5468 2.17268 27.6911 2.25429 27.6907C2.31625 27.6901 2.3825 27.6424 2.44145 27.649C2.51169 27.6572 2.57122 27.7224 2.63945 27.7112C2.64665 27.7102 2.63821 27.5687 2.64701 27.5671C2.74045 27.5507 2.83324 27.5661 2.92628 27.6616C2.93561 27.6713 2.92359 27.7956 2.93291 27.8127C2.98998 27.9148 3.08029 28.16 3.11419 27.6191C3.15285 27.6403 3.19979 27.6621 3.23437 27.7711C3.25668 27.8413 3.23502 27.9766 3.26241 27.9189C3.26859 27.906 3.26055 27.7875 3.26982 27.7772C3.30883 27.7338 3.35145 27.7723 3.39004 27.7111C3.39789 27.6983 3.39575 27.5921 3.39797 27.573C3.41666 27.4181 3.44778 27.6741 3.45456 27.6927C3.50622 27.8315 3.54394 27.7769 3.59206 27.7803C3.60322 27.7811 3.59002 27.6385 3.60077 27.6341C3.6565 27.6137 3.71423 27.626 3.7688 27.6893C3.78093 27.7037 3.76977 27.8252 3.77557 27.8383C3.80115 27.8946 3.80682 27.6651 3.83134 27.7147C3.83652 27.7249 3.8336 27.8289 3.83455 27.8403C3.84931 28.0197 3.86214 27.7656 3.86593 27.7599C3.91396 27.6833 3.94467 27.9486 3.99107 27.911C3.99662 27.9062 3.9841 27.7746 3.99971 27.7693C4.10366 27.7329 4.21361 27.7691 4.31651 27.8744C4.33251 27.8906 4.32109 27.9895 4.32209 28.0016C4.3385 28.1921 4.34912 27.9369 4.35434 27.9273C4.39549 27.8581 4.43394 28.0721 4.4619 27.7682C4.63619 27.8737 4.80969 27.703 4.98254 27.9753C4.98474 27.9784 4.9808 28.1041 4.98519 28.1099C5.03798 28.1804 5.02784 27.9851 5.06278 27.7462C5.07158 27.6862 5.09835 27.9746 5.10072 27.9958C5.10934 28.0737 5.1004 28.2607 5.10329 28.2757C5.1272 28.3942 5.1233 27.7759 5.15556 27.7757C5.15657 27.7767 5.15233 27.8905 5.15504 27.9018C5.16345 27.9374 5.17179 27.8922 5.18002 27.9313C5.19886 28.022 5.20557 28.3224 5.23434 28.1476C5.23798 28.1249 5.23242 27.7741 5.26122 27.7907C5.2727 27.7976 5.32353 27.7916 5.33777 27.8143C5.352 27.837 5.34223 27.9501 5.34324 27.9549C5.38157 28.1044 5.36704 28.1664 5.38624 28.3876C5.40545 28.6081 5.40012 28.0823 5.40795 28.0236C5.41579 27.9651 5.4439 28.0884 5.4508 28.1313C5.45771 28.1742 5.4491 28.246 5.45523 28.2703C5.49593 28.4288 5.4731 28.0093 5.48651 27.9258C5.51813 27.7282 5.54275 28.1182 5.57169 28.1564C5.57953 28.1667 5.57314 28.0779 5.58011 28.0696C5.60773 28.0379 5.62434 28.1595 5.65576 28.048C5.6609 28.0298 5.68631 27.7954 5.70275 27.9674C5.70508 27.9922 5.69846 28.0894 5.71023 28.1111C5.72782 28.1438 5.7595 28.165 5.7784 28.1326C5.79236 28.1085 5.77636 27.9484 5.79393 27.9982C5.80174 28.0204 5.78727 28.114 5.80193 28.1479C5.81652 28.1818 5.85383 28.1777 5.86802 28.1745C5.88219 28.1712 5.87443 28.0497 5.87558 28.0416C5.88251 27.9947 5.9097 27.9361 5.9121 27.9363C6.03331 27.9214 6.14507 28.1262 6.26308 28.0584C6.27234 28.0533 6.26618 27.9252 6.26759 27.9231C6.29929 27.8694 6.2743 28.2099 6.29644 28.3239C6.29324 28.064 6.30632 28.1111 6.32865 28.0826C6.33941 28.0686 6.33355 27.968 6.33453 27.9577C6.35049 27.8048 6.3616 28.0023 6.36447 28.0427C6.37503 28.1912 6.38654 28.0157 6.39373 28.115C6.40092 28.2135 6.38438 28.3597 6.40579 28.3578C6.4118 28.2647 6.3959 28.0216 6.41216 27.9822C6.47351 27.8332 6.58804 28.0239 6.63737 28.0438C6.68661 28.0636 6.70251 28.0464 6.7312 28.08C6.78302 28.1408 6.76403 27.9604 6.7962 27.8779C6.82847 27.7953 6.81279 28.2391 6.81742 28.3345C6.82198 28.4299 6.82695 28.3317 6.83261 28.3841C6.83826 28.4366 6.82604 28.5014 6.83932 28.5211C6.8526 28.5408 6.88893 28.3711 6.89364 28.2714C6.90359 28.06 6.88722 27.8382 6.92238 27.9161C6.9244 27.9208 6.91784 28.0375 6.92558 28.0492C6.98707 28.1391 7.05096 28.1447 7.11237 28.2241C7.12082 28.2352 7.11327 28.365 7.11818 28.373C7.16937 28.456 7.15107 28.2371 7.17913 27.9939C7.17283 28.3176 7.18834 28.5155 7.22719 28.5174C7.25055 28.5187 7.24653 28.3774 7.26163 28.2778C7.26617 28.2477 7.28269 28.3448 7.28569 28.2783C7.29556 28.061 7.27999 27.8178 7.32005 27.9147C7.32181 27.9193 7.31621 28.0382 7.32228 28.0454C7.36154 28.0925 7.36623 27.8653 7.40866 27.8378C7.44192 27.8162 7.50107 27.9547 7.53893 27.9773C7.53814 28.3411 7.57391 28.2578 7.58841 28.007C7.61299 28.0172 7.63953 28.003 7.66329 28.0377C7.67146 28.0495 7.66609 28.1549 7.66712 28.1663C7.68293 28.3448 7.69361 28.1007 7.69892 28.0912C7.75641 27.9982 7.80325 28.1831 7.85812 28.0024C7.86007 27.9959 7.86322 27.7431 7.87789 27.9277C7.87884 27.9404 7.86072 28.0554 7.88653 28.0643C7.91234 28.0732 7.96101 28.2087 7.99684 28.0915C8.00552 28.0634 8.02745 27.8582 8.04506 28.0185C8.04741 28.0403 8.04484 28.1127 8.04822 28.1531C8.05917 28.2816 8.06514 28.0261 8.07801 28.2432C8.09087 28.4602 8.11763 28.6227 8.15378 28.473C8.15493 28.4686 8.16348 28.2661 8.17485 28.2693C8.19299 28.2746 8.21875 28.3168 8.23769 28.3155C8.24677 28.3148 8.24096 28.1891 8.24254 28.1868C8.30353 28.1163 8.34693 28.2284 8.41227 28.277C8.42425 28.2862 8.45867 28.1148 8.48186 28.2503C8.50732 28.3987 8.48116 29.0159 8.53968 28.8688C8.56328 28.81 8.59317 28.027 8.63559 28.4327C8.71786 28.3321 8.79394 28.5398 8.87644 28.3962C8.88015 28.3899 8.89188 28.1713 8.9006 28.1743C8.91355 28.1791 8.92066 28.2813 8.9299 28.288C8.96864 28.3188 9.0041 28.2314 9.04145 28.245C9.05563 28.2499 9.05067 28.3555 9.06759 28.3614C9.08449 28.3672 9.09576 28.2282 9.11867 28.2953C9.13597 28.3465 9.15326 28.6308 9.17623 28.6639C9.1771 28.3835 9.19287 28.3893 9.22091 28.3153C9.22629 28.3009 9.22051 28.2033 9.22306 28.1915C9.23344 28.1412 9.24304 28.2221 9.25289 28.1674C9.25528 28.1542 9.2554 28.0584 9.25735 28.0423C9.27401 27.9013 9.30145 28.1167 9.30617 28.1542C9.32423 28.2966 9.33267 28.1721 9.34652 28.2281C9.36036 28.2842 9.33968 28.3543 9.35583 28.3884C9.38932 28.4587 9.43236 28.4433 9.46637 28.4477C9.47994 28.4488 9.47069 28.321 9.47263 28.3182C9.50069 28.2858 9.52907 28.4218 9.54463 28.1672C9.56409 28.8255 9.56156 28.1033 9.60167 28.2351C9.60483 28.2458 9.60885 28.5571 9.59672 28.6028C9.58459 28.6484 9.56619 28.5511 9.54936 28.6224C9.54537 28.6391 9.52254 28.9308 9.51943 28.9485C9.49502 29.0866 9.49157 28.6214 9.49028 28.5958C9.47563 28.3201 9.44773 28.6343 9.44038 28.6561C9.40677 28.7556 9.37821 28.6901 9.3501 28.7612C9.33171 28.8071 9.32991 29.1118 9.31547 29.1025C9.26748 29.0716 9.25072 28.6465 9.20549 29.0151C9.1958 29.0937 9.20543 29.4268 9.17068 29.1649C9.1685 29.1484 9.1427 28.9088 9.12779 29.0604C9.12592 29.0795 9.12598 29.1765 9.12351 29.1847C9.10696 29.2374 9.09593 29.1601 9.0779 29.1971C9.05987 29.2342 9.0382 29.2894 9.01762 29.2565C9.00522 29.2368 8.98931 29.0559 8.98337 29.0116C8.96661 28.8841 8.94863 29.0932 8.93824 28.9388C8.92777 28.7835 8.94825 28.5478 8.92078 28.4475C8.91977 28.6997 8.91743 28.9585 8.91579 29.2121C8.85561 29.2033 8.79639 29.1217 8.736 29.1329C8.72852 29.1345 8.73617 29.2701 8.72815 29.2753C8.69429 29.2969 8.66471 29.2002 8.62959 29.2387C8.60241 29.269 8.57261 29.4126 8.54418 29.4487C8.52682 29.1601 8.48465 29.2581 8.45401 29.2317C8.44328 29.2226 8.444 29.1456 8.43636 29.1204C8.40757 29.0274 8.42106 29.2824 8.41317 29.3226C8.3793 29.4938 8.3764 28.9166 8.33647 28.9309C8.33436 28.9315 8.3085 29.2391 8.30494 29.2583C8.2823 29.3832 8.30119 29.1512 8.28703 29.1285C8.26117 29.0869 8.2432 29.0134 8.21286 29.1036C8.20402 29.1303 8.18279 29.322 8.16562 29.1737C8.16336 29.1543 8.1646 29.0526 8.16279 29.0466C8.12986 28.9473 8.12899 29.2669 8.11018 29.3751C8.09136 29.4833 8.06229 29.2627 8.05638 29.1991C8.0409 29.0347 8.06823 29.1289 8.06907 29.1127C8.07892 28.9207 8.05772 28.9537 8.04152 28.9375C8.03918 28.6242 8.01653 28.643 8.02473 28.9219C8.02566 28.9524 8.03827 28.9232 8.04152 28.9375C8.0273 29.2449 8.00241 29.2843 7.97492 28.997C7.96204 28.8624 7.97421 28.7054 7.93511 28.7628C7.91737 28.7887 7.92423 29.0045 7.90857 29.0633C7.8728 29.1975 7.82631 28.9962 7.78943 29.0279C7.77604 29.0395 7.78908 29.1575 7.77993 29.1695C7.75566 29.2015 7.73425 29.1129 7.70986 29.1583C7.70766 29.1626 7.71305 29.2862 7.70547 29.2878C7.64799 29.3021 7.59794 29.2229 7.53793 29.2208C7.50893 29.2197 7.45709 29.2879 7.42705 29.2742C7.37499 29.2512 7.31095 29.0714 7.26647 29.1151C7.23747 29.1431 7.24383 29.2667 7.2314 29.3509C7.20742 29.5142 7.16496 29.2217 7.15925 29.1764C7.15907 29.1749 7.18403 29.1458 7.17071 29.0823C7.16297 28.9501 7.15953 29.1759 7.15925 29.1764C7.15549 29.1472 7.10563 29.1191 7.09573 29.1427C7.09035 29.1557 7.09336 29.2728 7.09056 29.2773C7.02388 29.3822 6.95709 29.4119 6.88947 29.3572C6.88828 29.3548 6.89007 29.2238 6.88727 29.2198C6.84812 29.1616 6.82305 29.3219 6.79077 29.417C6.75848 29.5122 6.73288 29.4803 6.71377 29.2554C6.68941 29.2837 6.65447 29.1842 6.63436 29.1239C6.61425 29.0635 6.61144 29.3186 6.60967 29.3237C6.55449 29.4851 6.52258 29.3391 6.46533 29.3163C6.43811 29.3051 6.38411 29.3421 6.35464 29.37C6.33134 29.3925 6.31731 29.3327 6.29585 29.3709C6.29294 29.376 6.29588 29.4896 6.29499 29.4939C6.27104 29.6298 6.28255 29.3522 6.2776 29.3026C6.25967 29.1223 6.2486 29.0262 6.21792 29.1111C6.21085 29.1305 6.19024 29.5303 6.17734 29.5536C6.16057 29.5833 6.1669 29.44 6.14934 29.4747C6.14784 29.4776 6.14815 29.566 6.13732 29.5621C6.08702 29.5451 6.03217 29.4937 5.9799 29.5026C5.97276 29.5034 5.98191 29.6436 5.9716 29.6472C5.92319 29.6638 5.87013 29.6586 5.82297 29.593C5.81136 29.5764 5.81864 29.4782 5.81612 29.4491C5.80065 29.2727 5.77871 29.529 5.77509 29.5339C5.68874 29.657 5.62266 29.4251 5.53465 29.5355C5.52986 29.542 5.49298 29.8167 5.47653 29.5811C5.4754 29.5654 5.45913 29.3244 5.44474 29.4892C5.44384 29.4995 5.45398 29.6236 5.43628 29.6109C5.41858 29.5983 5.3901 29.6812 5.36577 29.5448C5.35806 29.5019 5.33986 29.2614 5.31688 29.4531C5.31539 29.4665 5.27991 29.8999 5.26725 29.6009C5.2652 29.5517 5.26735 29.2352 5.23992 29.3974C5.23468 29.4289 5.2442 29.4995 5.23039 29.5436C5.20924 29.6115 5.18122 29.5267 5.15522 29.6677C5.15069 29.6927 5.13139 29.9075 5.11591 29.7444C5.11348 29.7189 5.11809 29.6133 5.10991 29.6014C5.07103 29.5447 5.03032 29.6154 4.99085 29.5423C4.97686 29.5166 4.98401 29.3458 4.96944 29.3C4.95486 29.2543 4.92549 29.2103 4.91024 29.2883C4.89498 29.3664 4.91165 29.6386 4.88879 29.6604C4.78944 29.755 4.69101 29.5953 4.5918 29.5719C4.57708 29.5685 4.58928 29.6659 4.5676 29.6677C4.48765 29.675 4.34962 29.7663 4.28024 29.5593C4.22466 29.3935 4.29461 29.2673 4.25213 29.1999C4.23164 29.1677 4.20946 29.4842 4.20452 29.4941C4.15618 29.5953 4.12259 29.4551 4.07908 29.4982C4.0701 29.5071 4.07891 29.6353 4.07126 29.6415C4.04515 29.6638 4.0177 29.6065 3.99274 29.617C3.98155 29.622 3.98361 29.7199 3.97331 29.7124C3.94866 29.6954 3.92686 29.6542 3.90283 29.5624C3.90064 29.5541 3.91541 29.4322 3.89717 29.4277C3.86765 29.4207 3.83101 29.3301 3.79705 29.4236C3.78698 29.4518 3.78658 29.6757 3.76492 29.521C3.76038 29.4888 3.76618 29.2199 3.74095 29.4522C3.7367 29.4908 3.69432 29.8041 3.67352 29.6022C3.66803 29.549 3.65403 29.329 3.64191 29.3636C3.64027 29.3691 3.64685 29.4894 3.63681 29.5011C3.60142 29.5403 3.56434 29.5275 3.52798 29.5652C3.51827 29.5755 3.53273 29.6999 3.51826 29.7113C3.47848 29.7427 3.4288 29.7111 3.38989 29.6721C3.37555 29.6575 3.38546 29.5544 3.38442 29.5432C3.36763 29.3607 3.35771 29.607 3.35214 29.6214C3.31749 29.7074 3.29111 29.5917 3.25917 29.6223C3.25036 29.6304 3.25661 29.7479 3.25485 29.7583C3.23666 29.8607 3.25021 29.6498 3.23869 29.6265C3.20643 29.5607 3.17046 29.5701 3.13783 29.5851C3.12585 29.5908 3.13932 29.727 3.12856 29.7305C3.0649 29.754 2.99872 29.741 2.9366 29.6659C2.9249 29.6515 2.93226 29.5466 2.92982 29.5227C2.91302 29.3551 2.88839 29.5837 2.88272 29.6055C2.85696 29.7049 2.84695 29.6121 2.82419 29.6294C2.71304 29.7156 2.57579 29.6542 2.47087 29.6163C2.33414 29.5674 2.22804 29.4677 2.09766 29.4936C2.08937 29.4951 2.09773 29.6346 2.09058 29.6377C1.99836 29.6713 1.90756 29.6168 1.81515 29.6571C1.80756 29.6602 1.81849 29.7924 1.80632 29.8017C1.78136 29.8219 1.74973 29.8147 1.72449 29.7724C1.71218 29.7521 1.72869 29.6386 1.7163 29.6205C1.68744 29.5779 1.65651 29.5685 1.62687 29.5897C1.61425 29.599 1.63328 29.7343 1.61689 29.7358C1.5052 29.7492 1.39552 29.7725 1.28266 29.5974C1.27492 29.5854 1.26813 29.3105 1.25168 29.3632C1.25044 29.4395 1.25051 29.5292 1.24997 29.6108C1.08739 29.6547 0.926468 29.5594 0.76343 29.5447C0.756556 29.5441 0.768436 29.6897 0.755127 29.6893C0.678101 29.6872 0.603304 29.7275 0.524515 29.5828C0.516698 29.5686 0.520708 29.3124 0.497671 29.3511C0.493608 29.3582 0.458911 29.3924 0.44994 29.448C0.448722 29.4564 0.455052 29.576 0.443872 29.5795C0.378898 29.5976 0.31081 29.5703 0.245949 29.4972C0.235481 29.4852 0.246628 29.3579 0.239173 29.3482C0.186285 29.2806 0.128758 29.3774 0.0782208 29.2618C0.0443932 29.1839 0.0569172 28.9638 0.0389416 28.7471C0.0363991 28.7165 0.015452 28.7116 0.0143688 28.5856C0.0115878 28.2685 0.0217339 27.9214 0.0175707 27.5834C0.0166911 27.5106 -0.0113625 27.589 0.00524706 27.4131C0.00640742 27.4014 0.0267464 27.343 0.0317559 27.2833C0.0352437 27.2421 0.0289586 27.1138 0.0360748 27.061C0.0431904 27.0083 0.0510095 27.1158 0.062807 27.0537C0.0745993 26.9909 0.0694141 26.845 0.0929645 26.8278ZM6.54381 28.8542C6.52519 28.7317 6.52244 29.1803 6.54258 29.073C6.54356 29.0673 6.54477 28.8602 6.54381 28.8542ZM8.79673 28.7833C8.77238 28.5854 8.75572 28.8764 8.7729 29.0292C8.79007 29.1819 8.80414 28.8433 8.79673 28.7833ZM9.04916 28.6388C9.0207 28.4828 9.01623 29.119 9.0467 28.9904C9.04847 28.9831 9.05082 28.6479 9.04916 28.6388ZM0.122303 28.6854C0.122046 28.6794 0.106988 28.6736 0.106628 28.6795C0.0986106 28.822 0.12872 28.8335 0.122303 28.6854ZM9.29965 28.4816C9.29077 28.3955 9.2652 28.4948 9.27623 28.6019C9.28511 28.6879 9.31071 28.5886 9.29965 28.4816ZM5.57248 28.3754C5.57218 28.3687 5.56139 28.3627 5.5616 28.4004C5.56234 28.5222 5.57736 28.4878 5.57248 28.3754ZM9.72539 28.4742C9.66249 28.4503 9.62435 27.9248 9.69285 27.9841C9.70526 27.9948 9.66612 28.1516 9.68191 28.199C9.71079 28.2853 9.72998 27.9554 9.75946 28.1322C9.7648 28.1646 9.72898 28.4768 9.72528 28.475C9.72532 28.4747 9.72536 28.4745 9.72539 28.4742ZM6.53309 28.3153C6.53271 28.3094 6.51777 28.3037 6.51741 28.3096C6.50932 28.4521 6.53943 28.4635 6.53309 28.3153ZM4.94256 28.098C4.94173 28.0853 4.90705 28.0735 4.90592 28.0851C4.88783 28.318 4.95794 28.3426 4.94256 28.098ZM7.53953 27.987C7.55584 27.8437 7.57534 27.8268 7.58834 28.0068C7.57214 27.9972 7.55582 27.9958 7.53953 27.987ZM60.9187 29.7972C60.8708 29.8363 60.8081 29.7945 60.7604 29.7372C60.7455 29.7194 60.753 29.6399 60.7427 29.624C60.7225 29.5931 60.7037 29.6321 60.6838 29.5953C60.6772 29.5827 60.6854 29.4567 60.6785 29.4464C60.6405 29.3908 60.6046 29.4228 60.5662 29.3961C60.3768 29.264 60.1906 29.2167 59.9988 29.1593C59.9356 29.1405 59.8588 29.0262 59.7935 29.0762C59.7858 29.0821 59.7904 29.1927 59.7889 29.2018C59.7662 29.3413 59.7737 29.1181 59.7589 29.0884C59.6999 28.9714 59.6344 28.9612 59.5777 29.0039C59.5535 29.0223 59.5777 29.2419 59.5534 29.1187C59.5517 29.1103 59.5579 28.9929 59.5512 28.9804C59.5362 28.9523 59.5078 28.9732 59.4961 28.9639C59.4737 28.9454 59.47 28.9466 59.4488 28.9453C59.4198 28.9424 59.3853 28.8841 59.3542 28.9107C59.3476 28.9167 59.3564 29.037 59.3458 29.0575C59.3352 29.0779 59.3071 29.0677 59.2977 29.0394C59.2882 29.011 59.2923 28.9164 59.2906 28.8947C59.2768 28.7117 59.2444 28.9652 59.2402 28.9714C59.1642 29.0782 59.0989 28.9339 59.0275 28.9343C58.9733 28.9349 58.9153 28.9826 58.8637 28.976C58.8023 28.9678 58.7502 28.9026 58.6905 28.9138C58.6842 28.9148 58.6916 29.0563 58.6839 29.0579C58.6021 29.0743 58.5209 29.0589 58.4395 28.9634C58.4313 28.9537 58.4419 28.8294 58.4337 28.8123C58.3838 28.7102 58.3047 28.465 58.2751 29.0059C58.2413 28.9847 58.2002 28.9629 58.1699 28.8539C58.1504 28.7837 58.1694 28.6484 58.1454 28.7061C58.14 28.719 58.147 28.8375 58.1389 28.8478C58.1048 28.8912 58.0675 28.8527 58.0337 28.9139C58.0268 28.9267 58.0287 29.0329 58.0268 29.052C58.0104 29.2069 57.9832 28.9509 57.9773 28.9323C57.9321 28.7935 57.8991 28.8481 57.857 28.8447C57.8472 28.8439 57.8587 28.9865 57.8493 28.9909C57.8006 29.0113 57.7501 28.999 57.7023 28.9357C57.6917 28.9213 57.7015 28.7998 57.6964 28.7867C57.674 28.7304 57.669 28.9599 57.6476 28.9103C57.6431 28.9001 57.6456 28.7961 57.6448 28.7847C57.6319 28.6053 57.6206 28.8594 57.6173 28.8651C57.5753 28.9417 57.5484 28.6764 57.5078 28.714C57.503 28.7188 57.5139 28.8504 57.5003 28.8557C57.4093 28.8921 57.3131 28.8559 57.2231 28.7506C57.2091 28.7344 57.2191 28.6355 57.2182 28.6234C57.2038 28.4329 57.1945 28.6881 57.19 28.6977C57.1539 28.7669 57.1203 28.5529 57.0958 28.8568C56.9433 28.7513 56.7915 28.922 56.6403 28.6497C56.6384 28.6466 56.6418 28.5209 56.638 28.5151C56.5918 28.4446 56.6006 28.6399 56.5701 28.8788C56.5624 28.9388 56.5389 28.6504 56.5369 28.6292C56.5293 28.5513 56.5372 28.3643 56.5346 28.3493C56.5137 28.2308 56.5171 28.8491 56.4889 28.8493C56.488 28.8483 56.4917 28.7345 56.4893 28.7232C56.482 28.6876 56.4747 28.7328 56.4675 28.6937C56.451 28.603 56.4451 28.3026 56.42 28.4774C56.4168 28.5001 56.4216 28.8509 56.3964 28.8343C56.3864 28.8274 56.3419 28.8334 56.3295 28.8107C56.317 28.788 56.3256 28.6749 56.3247 28.6701C56.2911 28.5206 56.3038 28.4586 56.287 28.2374C56.2702 28.0169 56.2749 28.5427 56.268 28.6014C56.2612 28.6599 56.2366 28.5366 56.2305 28.4937C56.2245 28.4508 56.232 28.379 56.2267 28.3547C56.1911 28.1962 56.211 28.6157 56.1993 28.6992C56.1716 28.8968 56.1501 28.5068 56.1248 28.4686C56.1179 28.4583 56.1235 28.5471 56.1174 28.5554C56.0932 28.5871 56.0787 28.4655 56.0512 28.577C56.0467 28.5952 56.0245 28.8296 56.0101 28.6576C56.0081 28.6328 56.0138 28.5356 56.0035 28.5139C55.9882 28.4812 55.9604 28.46 55.9439 28.4924C55.9317 28.5165 55.9457 28.6766 55.9303 28.6268C55.9235 28.6046 55.9361 28.511 55.9233 28.4771C55.9105 28.4432 55.8779 28.4473 55.8655 28.4505C55.8531 28.4538 55.8599 28.5753 55.8589 28.5834C55.8528 28.6303 55.829 28.6889 55.8269 28.6887C55.7209 28.7036 55.6231 28.4988 55.5198 28.5666C55.5117 28.5717 55.5171 28.6998 55.5159 28.7019C55.4881 28.7556 55.51 28.4151 55.4906 28.3011C55.4934 28.561 55.482 28.5139 55.4624 28.5424C55.453 28.5564 55.4581 28.657 55.4573 28.6673C55.4433 28.8202 55.4336 28.6227 55.4311 28.5823C55.4218 28.4338 55.4118 28.6093 55.4055 28.51C55.3992 28.4115 55.4137 28.2653 55.3949 28.2672C55.3897 28.3603 55.4036 28.6034 55.3894 28.6428C55.3357 28.7918 55.2355 28.6011 55.1923 28.5812C55.1492 28.5614 55.1353 28.5786 55.1102 28.545C55.0649 28.4842 55.0815 28.6646 55.0533 28.7471C55.0251 28.8297 55.0388 28.3859 55.0348 28.2905C55.0308 28.1951 55.0264 28.2933 55.0215 28.2409C55.0165 28.1884 55.0272 28.1236 55.0156 28.1039C55.004 28.0842 54.9722 28.2539 54.9681 28.3536C54.9594 28.565 54.9737 28.7868 54.9429 28.7089C54.9412 28.7042 54.9469 28.5875 54.9401 28.5758C54.8863 28.4859 54.8304 28.4803 54.7767 28.4009C54.7693 28.3898 54.7759 28.26 54.7716 28.252C54.7268 28.169 54.7428 28.3879 54.7183 28.6311C54.7238 28.3074 54.7102 28.1095 54.6762 28.1076C54.6558 28.1063 54.6593 28.2476 54.6461 28.3472C54.6421 28.3773 54.6276 28.2802 54.625 28.3467C54.6164 28.564 54.63 28.8072 54.595 28.7103C54.5934 28.7057 54.5983 28.5868 54.593 28.5796C54.5587 28.5325 54.5545 28.7597 54.5174 28.7872C54.4883 28.8088 54.4366 28.6703 54.4034 28.6477C54.4041 28.2839 54.3728 28.3672 54.3601 28.618C54.3386 28.6078 54.3154 28.622 54.2946 28.5873C54.2875 28.5755 54.2922 28.4701 54.2913 28.4587C54.2774 28.2802 54.2681 28.5243 54.2634 28.5338C54.2131 28.6268 54.1722 28.4419 54.1241 28.6226C54.1224 28.6291 54.1197 28.8819 54.1068 28.6973C54.106 28.6846 54.1219 28.5696 54.0993 28.5607C54.0767 28.5518 54.0341 28.4163 54.0028 28.5335C53.9952 28.5616 53.976 28.7668 53.9606 28.6065C53.9585 28.5847 53.9608 28.5123 53.9578 28.4719C53.9482 28.3434 53.943 28.5989 53.9317 28.3818C53.9205 28.1648 53.8971 28.0023 53.8654 28.152C53.8644 28.1564 53.857 28.3589 53.847 28.3557C53.8311 28.3504 53.8086 28.3082 53.792 28.3095C53.7841 28.3102 53.7892 28.4359 53.7878 28.4382C53.7344 28.5087 53.6964 28.3966 53.6393 28.348C53.6288 28.3388 53.5987 28.5102 53.5784 28.3747C53.5561 28.2263 53.579 27.6091 53.5278 27.7562C53.5071 27.815 53.481 28.598 53.4439 28.1923C53.3719 28.2929 53.3053 28.0852 53.2331 28.2288C53.2299 28.2351 53.2196 28.4537 53.212 28.4507C53.2006 28.4459 53.1944 28.3437 53.1863 28.337C53.1524 28.3062 53.1214 28.3936 53.0887 28.38C53.0763 28.3751 53.0807 28.2695 53.0659 28.2636C53.0511 28.2578 53.0412 28.3968 53.0212 28.3297C53.006 28.2785 52.9909 27.9942 52.9708 27.9611C52.97 28.2415 52.9562 28.2357 52.9317 28.3097C52.927 28.3241 52.932 28.4217 52.9298 28.4335C52.9207 28.4838 52.9123 28.4029 52.9037 28.4576C52.9016 28.4708 52.9015 28.5666 52.8998 28.5827C52.8852 28.7237 52.8612 28.5083 52.8571 28.4708C52.8413 28.3284 52.8339 28.4529 52.8218 28.3969C52.8097 28.3408 52.8278 28.2707 52.8136 28.2366C52.7843 28.1663 52.7467 28.1817 52.7169 28.1773C52.7051 28.1762 52.7132 28.304 52.7115 28.3068C52.6869 28.3392 52.6621 28.2032 52.6484 28.4578C52.6314 27.7995 52.6336 28.5217 52.5985 28.3899C52.5958 28.3792 52.5923 28.0679 52.6029 28.0222C52.6135 27.9766 52.6296 28.0739 52.6443 28.0026C52.6478 27.9859 52.6678 27.6942 52.6705 27.6765C52.6919 27.5384 52.6949 28.0036 52.696 28.0292C52.7088 28.3049 52.7332 27.9907 52.7397 27.9689C52.7691 27.8694 52.7941 27.9349 52.8187 27.8638C52.8348 27.8179 52.8363 27.5132 52.849 27.5225C52.891 27.5534 52.9056 27.9785 52.9452 27.6099C52.9537 27.5313 52.9452 27.1982 52.9757 27.4601C52.9776 27.4766 53.0001 27.7162 53.0132 27.5646C53.0148 27.5455 53.0148 27.4485 53.0169 27.4403C53.0314 27.3876 53.0411 27.4649 53.0568 27.4279C53.0726 27.3908 53.0916 27.3356 53.1096 27.3685C53.1204 27.3882 53.1344 27.5691 53.1396 27.6134C53.1542 27.7409 53.17 27.5318 53.179 27.6862C53.1882 27.8415 53.1703 28.0772 53.1943 28.1775C53.1952 27.9253 53.1973 27.6665 53.1987 27.4129C53.2513 27.4217 53.3032 27.5033 53.356 27.4921C53.3626 27.4905 53.3559 27.3549 53.3629 27.3497C53.3925 27.3281 53.4184 27.4248 53.4491 27.3863C53.4729 27.356 53.499 27.2124 53.5238 27.1763C53.539 27.4649 53.5759 27.3669 53.6027 27.3933C53.6121 27.4024 53.6115 27.4794 53.6182 27.5046C53.6434 27.5976 53.6316 27.3426 53.6385 27.3024C53.6681 27.1312 53.6707 27.7084 53.7056 27.6941C53.7074 27.6935 53.7301 27.3859 53.7332 27.3667C53.753 27.2418 53.7365 27.4738 53.7489 27.4965C53.7715 27.5381 53.7872 27.6116 53.8137 27.5214C53.8215 27.4947 53.8401 27.303 53.8551 27.4513C53.8571 27.4707 53.856 27.5724 53.8576 27.5784C53.8864 27.6777 53.8871 27.3581 53.9036 27.2499C53.9201 27.1417 53.9455 27.3623 53.9507 27.4259C53.9642 27.5903 53.9403 27.4961 53.9396 27.5123C53.931 27.7043 53.9495 27.6713 53.9637 27.6875C53.9657 28.0008 53.9855 27.982 53.9784 27.7031C53.9775 27.6726 53.9665 27.7018 53.9637 27.6875C53.9761 27.3801 53.9979 27.3407 54.0219 27.628C54.0332 27.7626 54.0226 27.9196 54.0568 27.8622C54.0723 27.8363 54.0663 27.6205 54.08 27.5617C54.1113 27.4275 54.152 27.6288 54.1843 27.5971C54.196 27.5855 54.1846 27.4675 54.1926 27.4555C54.2138 27.4235 54.2325 27.5121 54.2539 27.4667C54.2558 27.4624 54.2511 27.3388 54.2577 27.3372C54.308 27.3229 54.3518 27.4021 54.4043 27.4042C54.4297 27.4053 54.475 27.3371 54.5013 27.3508C54.5469 27.3738 54.6029 27.5536 54.6418 27.5099C54.6672 27.4819 54.6617 27.3583 54.6725 27.2741C54.6935 27.1108 54.7307 27.4033 54.7357 27.4486C54.7358 27.4501 54.714 27.4792 54.7256 27.5427C54.7324 27.6749 54.7354 27.4491 54.7357 27.4486C54.7389 27.4778 54.7826 27.5059 54.7912 27.4823C54.7959 27.4693 54.7933 27.3522 54.7958 27.3477C54.8541 27.2428 54.9125 27.2131 54.9717 27.2678C54.9728 27.2702 54.9712 27.4012 54.9736 27.4052C55.0079 27.4634 55.0298 27.3031 55.0581 27.208C55.0863 27.1128 55.1087 27.1447 55.1255 27.3696C55.1468 27.3413 55.1773 27.4408 55.1949 27.5011C55.2125 27.5615 55.215 27.3064 55.2165 27.3013C55.2648 27.1399 55.2927 27.2859 55.3428 27.3087C55.3667 27.3199 55.4139 27.2829 55.4397 27.255C55.4601 27.2325 55.4724 27.2923 55.4911 27.2541C55.4937 27.249 55.4911 27.1354 55.4919 27.1311C55.5128 26.9952 55.5028 27.2728 55.5071 27.3224C55.5228 27.5027 55.5325 27.5988 55.5593 27.5139C55.5655 27.4945 55.5835 27.0947 55.5948 27.0714C55.6095 27.0417 55.604 27.185 55.6193 27.1503C55.6206 27.1474 55.6204 27.059 55.6298 27.0629C55.6739 27.0799 55.7218 27.1313 55.7676 27.1224C55.7738 27.1216 55.7658 26.9814 55.7749 26.9778C55.8172 26.9612 55.8636 26.9664 55.9049 27.032C55.9151 27.0486 55.9087 27.1468 55.9109 27.1759C55.9244 27.3523 55.9436 27.096 55.9468 27.0911C56.0224 26.968 56.0802 27.1999 56.1572 27.0895C56.1614 27.083 56.1936 26.8083 56.208 27.0439C56.209 27.0596 56.2233 27.3006 56.2359 27.1358C56.2366 27.1255 56.2278 27.0014 56.2433 27.0141C56.2587 27.0267 56.2837 26.9438 56.305 27.0802C56.3117 27.1231 56.3276 27.3636 56.3477 27.1719C56.349 27.1585 56.3801 26.7251 56.3912 27.0241C56.393 27.0733 56.3911 27.3898 56.4151 27.2276C56.4197 27.1961 56.4113 27.1255 56.4234 27.0814C56.4419 27.0135 56.4664 27.0983 56.4892 26.9573C56.4931 26.9323 56.51 26.7175 56.5236 26.8806C56.5257 26.9061 56.5217 27.0117 56.5288 27.0236C56.5628 27.0803 56.5985 27.0096 56.633 27.0827C56.6452 27.1084 56.639 27.2792 56.6517 27.325C56.6645 27.3707 56.6902 27.4147 56.7035 27.3367C56.7169 27.2586 56.7023 26.9864 56.7223 26.9646C56.8092 26.87 56.8954 27.0297 56.9822 27.0531C56.9951 27.0565 56.9844 26.9591 57.0034 26.9573C57.0733 26.95 57.1941 26.8587 57.2548 27.0657C57.3034 27.2315 57.2422 27.3577 57.2794 27.4251C57.2973 27.4573 57.3167 27.1408 57.321 27.1309C57.3633 27.0297 57.3927 27.1699 57.4308 27.1268C57.4387 27.1179 57.431 26.9897 57.4376 26.9835C57.4605 26.9612 57.4845 27.0185 57.5064 27.008C57.5161 27.003 57.5143 26.9051 57.5234 26.9126C57.5449 26.9296 57.564 26.9708 57.585 27.0626C57.5869 27.0709 57.574 27.1928 57.59 27.1973C57.6158 27.2043 57.6479 27.2949 57.6776 27.2014C57.6864 27.1732 57.6867 26.9493 57.7057 27.104C57.7097 27.1362 57.7046 27.4051 57.7267 27.1728C57.7304 27.1342 57.7675 26.8209 57.7857 27.0228C57.7905 27.076 57.8027 27.296 57.8133 27.2614C57.8148 27.2559 57.809 27.1356 57.8178 27.1239C57.8488 27.0847 57.8812 27.0975 57.913 27.0598C57.9215 27.0495 57.9089 26.9251 57.9215 26.9137C57.9563 26.8823 57.9998 26.9139 58.0338 26.9529C58.0464 26.9675 58.0377 27.0706 58.0386 27.0818C58.0533 27.2643 58.062 27.018 58.0669 27.0036C58.0972 26.9176 58.1203 27.0333 58.1482 27.0027C58.1559 26.9946 58.1505 26.8771 58.152 26.8667C58.1679 26.7643 58.1561 26.9752 58.1661 26.9985C58.1944 27.0643 58.2258 27.0549 58.2544 27.0399C58.2649 27.0342 58.2531 26.898 58.2625 26.8945C58.3182 26.871 58.3761 26.884 58.4305 26.9591C58.4407 26.9735 58.4343 27.0784 58.4364 27.1023C58.4511 27.2699 58.4727 27.0413 58.4776 27.0195C58.5002 26.9201 58.5089 27.0129 58.5288 26.9956C58.6261 26.9094 58.7462 26.9708 58.838 27.0087C58.9576 27.0576 59.0505 27.1573 59.1646 27.1314C59.1718 27.1299 59.1645 26.9904 59.1707 26.9873C59.2514 26.9537 59.3309 27.0082 59.4117 26.9679C59.4184 26.9648 59.4088 26.8326 59.4195 26.8233C59.4413 26.8031 59.469 26.8103 59.4911 26.8526C59.5019 26.8729 59.4874 26.9864 59.4982 27.0045C59.5235 27.0471 59.5506 27.0565 59.5765 27.0353C59.5875 27.026 59.5709 26.8907 59.5852 26.8892C59.6829 26.8758 59.7789 26.8525 59.8777 27.0276C59.8844 27.0396 59.8904 27.3145 59.9048 27.2618C59.9059 27.1855 59.9058 27.0958 59.9063 27.0142C60.0485 26.9703 60.1893 27.0656 60.332 27.0803C60.338 27.0809 60.3276 26.9353 60.3393 26.9357C60.4067 26.9378 60.4721 26.8975 60.541 27.0422C60.5479 27.0564 60.5444 27.3126 60.5645 27.2739C60.5681 27.2668 60.5985 27.2326 60.6063 27.177C60.6074 27.1686 60.6018 27.049 60.6116 27.0455C60.6685 27.0274 60.728 27.0547 60.7848 27.1278C60.794 27.1398 60.7842 27.2671 60.7907 27.2768C60.837 27.3444 60.8873 27.2476 60.9316 27.3632C60.9612 27.4411 60.9502 27.6612 60.9659 27.8779C60.9682 27.9085 60.9865 27.9134 60.9874 28.0394C60.9899 28.3565 60.981 28.7036 60.9846 29.0416C60.9854 29.1144 61.0099 29.036 60.9954 29.2119C60.9944 29.2236 60.9766 29.282 60.9722 29.3417C60.9692 29.3829 60.9747 29.5112 60.9684 29.564C60.9622 29.6167 60.9554 29.5092 60.945 29.5713C60.9347 29.6341 60.9393 29.78 60.9187 29.7972ZM55.2742 27.7708C55.2905 27.8933 55.2929 27.4447 55.2752 27.552C55.2744 27.5577 55.2733 27.7648 55.2742 27.7708ZM53.3029 27.8417C53.3242 28.0396 53.3387 27.7486 53.3237 27.5958C53.3087 27.4431 53.2964 27.7817 53.3029 27.8417ZM53.082 27.9862C53.1069 28.1422 53.1108 27.506 53.0841 27.6346C53.0826 27.6419 53.0805 27.9771 53.082 27.9862ZM60.893 27.9396C60.8932 27.9456 60.9064 27.9514 60.9067 27.9455C60.9137 27.803 60.8874 27.7915 60.893 27.9396ZM52.8628 28.1434C52.8706 28.2295 52.893 28.1302 52.8833 28.0231C52.8755 27.9371 52.8531 28.0364 52.8628 28.1434ZM56.1241 28.2496C56.1243 28.2563 56.1338 28.2623 56.1336 28.2246C56.133 28.1028 56.1198 28.1372 56.1241 28.2496ZM52.4903 28.1508C52.5453 28.1747 52.5787 28.7002 52.5188 28.6409C52.5079 28.6302 52.5421 28.4734 52.5283 28.426C52.5031 28.3397 52.4863 28.6696 52.4605 28.4928C52.4558 28.4604 52.4871 28.1482 52.4904 28.15C52.4903 28.1503 52.4903 28.1505 52.4903 28.1508ZM55.2836 28.3097C55.2839 28.3156 55.297 28.3213 55.2973 28.3154C55.3043 28.1729 55.278 28.1615 55.2836 28.3097ZM56.6753 28.527C56.676 28.5397 56.7063 28.5515 56.7073 28.5399C56.7232 28.307 56.6618 28.2824 56.6753 28.527ZM54.4029 28.638C54.3886 28.7813 54.3716 28.7982 54.3602 28.6182C54.3744 28.6278 54.3887 28.6292 54.4029 28.638ZM37.5553 31.8875C37.5162 31.8397 37.558 31.777 37.6153 31.7294C37.6331 31.7145 37.7126 31.722 37.7285 31.7117C37.7594 31.6916 37.7204 31.6728 37.7572 31.6529C37.7698 31.6463 37.8958 31.6545 37.9061 31.6476C37.9617 31.6097 37.9297 31.5738 37.9564 31.5354C38.0885 31.3461 38.1358 31.1601 38.1932 30.9686C38.212 30.9054 38.3263 30.8287 38.2763 30.7634C38.2704 30.7558 38.1598 30.7604 38.1507 30.7589C38.0112 30.7362 38.2344 30.7438 38.2641 30.7289C38.3811 30.67 38.3913 30.6045 38.3486 30.5479C38.3302 30.5238 38.1106 30.5479 38.2338 30.5237C38.2422 30.522 38.3596 30.5281 38.3721 30.5215C38.4002 30.5065 38.3793 30.478 38.3886 30.4664C38.4071 30.444 38.4059 30.4403 38.4072 30.4191C38.4101 30.3902 38.4684 30.3557 38.4418 30.3247C38.4358 30.318 38.3155 30.3268 38.295 30.3162C38.2746 30.3056 38.2848 30.2776 38.3131 30.2682C38.3415 30.2587 38.4361 30.2628 38.4578 30.2611C38.6408 30.2473 38.3873 30.2149 38.3811 30.2108C38.2743 30.1348 38.4186 30.0696 38.4182 29.9983C38.4176 29.9441 38.3699 29.8862 38.3765 29.8347C38.3847 29.7733 38.4499 29.7212 38.4387 29.6616C38.4377 29.6553 38.2962 29.6627 38.2946 29.655C38.2782 29.5733 38.2936 29.4922 38.3891 29.4109C38.3988 29.4027 38.5231 29.4132 38.5402 29.4051C38.6423 29.3552 38.8875 29.2763 38.3466 29.2466C38.3678 29.2128 38.3896 29.1718 38.4986 29.1416C38.5688 29.1221 38.7041 29.141 38.6464 29.1171C38.6335 29.1117 38.515 29.1187 38.5047 29.1106C38.4613 29.0765 38.4998 29.0392 38.4386 29.0055C38.4258 28.9986 38.3196 29.0005 38.3005 28.9986C38.1456 28.9822 38.4016 28.955 38.4202 28.9491C38.559 28.904 38.5044 28.871 38.5078 28.8289C38.5086 28.8192 38.366 28.8307 38.3616 28.8213C38.3412 28.7726 38.3535 28.7221 38.4168 28.6744C38.4312 28.6638 38.5527 28.6736 38.5658 28.6685C38.6221 28.6462 38.3926 28.6412 38.4422 28.6198C38.4524 28.6152 38.5564 28.6178 38.5678 28.617C38.7472 28.6041 38.4931 28.5928 38.4874 28.5895C38.4108 28.5475 38.6761 28.5207 38.6385 28.4801C38.6337 28.4753 38.5021 28.4862 38.4968 28.4726C38.4604 28.3817 38.4966 28.2856 38.6019 28.1957C38.6181 28.1817 38.717 28.1917 38.7291 28.1908C38.9196 28.1765 38.6644 28.1672 38.6548 28.1626C38.5856 28.1266 38.7996 28.093 38.4957 28.0686C38.6012 27.9162 38.4305 27.7646 38.7028 27.6135C38.7059 27.6116 38.8316 27.615 38.8374 27.6112C38.9079 27.565 38.7126 27.5739 38.4737 27.5434C38.4137 27.5357 38.7021 27.5123 38.7233 27.5102C38.8012 27.5027 38.9882 27.5105 39.0033 27.5079C39.1217 27.487 38.5034 27.4905 38.5032 27.4623C38.5042 27.4614 38.618 27.4651 38.6293 27.4627C38.6649 27.4554 38.6197 27.4481 38.6588 27.4409C38.7495 27.4244 39.0499 27.4185 38.8751 27.3934C38.8524 27.3902 38.5016 27.3951 38.5182 27.3699C38.5251 27.3599 38.5191 27.3154 38.5418 27.303C38.5645 27.2906 38.6776 27.2991 38.6824 27.2982C38.8319 27.2647 38.8939 27.2774 39.1151 27.2606C39.3356 27.2438 38.8098 27.2485 38.7511 27.2416C38.6926 27.2348 38.8159 27.2102 38.8588 27.2042C38.9017 27.1981 38.9735 27.2057 38.9978 27.2003C39.1563 27.1647 38.7368 27.1847 38.6533 27.173C38.4557 27.1453 38.8457 27.1238 38.8839 27.0985C38.8942 27.0917 38.8054 27.0973 38.7971 27.0912C38.7654 27.067 38.887 27.0525 38.7755 27.025C38.7573 27.0205 38.5229 26.9983 38.6949 26.984C38.7197 26.9819 38.8169 26.9877 38.8386 26.9774C38.8713 26.962 38.8925 26.9344 38.8601 26.9178C38.836 26.9056 38.6759 26.9196 38.7257 26.9043C38.7479 26.8974 38.8415 26.9101 38.8754 26.8973C38.9093 26.8845 38.9052 26.8519 38.902 26.8395C38.8987 26.8271 38.7772 26.8339 38.7691 26.8329C38.7222 26.8268 38.6636 26.8031 38.6638 26.801C38.6489 26.695 38.8537 26.5973 38.7859 26.4942C38.7808 26.4861 38.6527 26.4915 38.6506 26.4902C38.5969 26.4625 38.9374 26.4844 39.0514 26.465C38.7915 26.4678 38.8386 26.4564 38.8101 26.4369C38.7961 26.4275 38.6955 26.4326 38.6852 26.4317C38.5323 26.4178 38.7298 26.408 38.7702 26.4055C38.9187 26.3963 38.7432 26.3863 38.8425 26.38C38.941 26.3737 39.0872 26.3881 39.0853 26.3694C38.9922 26.3642 38.7491 26.3781 38.7097 26.3639C38.5607 26.3102 38.7514 26.2101 38.7713 26.167C38.7911 26.124 38.7739 26.1101 38.8075 26.085C38.8683 26.0397 38.6879 26.0563 38.6054 26.0282C38.5228 26 38.9666 26.0137 39.062 26.0096C39.1574 26.0056 39.0592 26.0013 39.1116 25.9963C39.1641 25.9914 39.2289 26.0021 39.2486 25.9905C39.2683 25.9789 39.0986 25.9471 38.9989 25.943C38.7875 25.9343 38.5657 25.9486 38.6436 25.9179C38.6483 25.9161 38.765 25.9218 38.7767 25.9151C38.8666 25.8613 38.8722 25.8055 38.9516 25.7518C38.9627 25.7444 39.0925 25.751 39.1005 25.7467C39.1835 25.702 38.9646 25.718 38.7215 25.6934C39.0451 25.699 39.243 25.6854 39.2449 25.6514C39.2462 25.631 39.1049 25.6345 39.0053 25.6213C38.9752 25.6174 39.0723 25.6029 39.0058 25.6003C38.7885 25.5917 38.5453 25.6053 38.6422 25.5703C38.6468 25.5687 38.7657 25.5736 38.7729 25.5683C38.82 25.534 38.5928 25.5299 38.5653 25.4928C38.5437 25.4637 38.6823 25.412 38.7048 25.3789C39.0686 25.3796 38.9853 25.3484 38.7345 25.3357C38.7447 25.3142 38.7305 25.291 38.7652 25.2702C38.777 25.2631 38.8824 25.2678 38.8938 25.2669C39.0723 25.2531 38.8282 25.2437 38.8187 25.2391C38.7257 25.1888 38.9106 25.1479 38.7299 25.0999C38.7234 25.0982 38.4706 25.0955 38.6552 25.0827C38.6679 25.0818 38.7829 25.0977 38.7918 25.0751C38.8007 25.0525 38.9362 25.01 38.819 24.9787C38.7909 24.9711 38.5857 24.9519 38.746 24.9365C38.7678 24.9345 38.8402 24.9367 38.8806 24.9338C39.0091 24.9242 38.7536 24.919 38.9707 24.9077C39.1877 24.8965 39.3502 24.8731 39.2005 24.8415C39.1961 24.8405 38.9936 24.833 38.9968 24.8231C39.0021 24.8072 39.0443 24.7847 39.043 24.7682C39.0423 24.7602 38.9166 24.7653 38.9143 24.7639C38.8438 24.7106 38.9559 24.6727 39.0045 24.6156C39.0137 24.6051 38.8423 24.575 38.9778 24.5547C39.1262 24.5325 39.7434 24.5553 39.5963 24.5042C39.5375 24.4836 38.7545 24.4574 39.1602 24.4204C39.0596 24.3484 39.2673 24.2819 39.1237 24.2098C39.1174 24.2066 38.8988 24.1963 38.9018 24.1887C38.9066 24.1774 39.0088 24.1712 39.0155 24.1631C39.0463 24.1292 38.9589 24.0982 38.9725 24.0656C38.9774 24.0532 39.083 24.0575 39.0889 24.0427C39.0947 24.028 38.9557 24.0181 39.0228 23.9981C39.074 23.983 39.3583 23.9678 39.3914 23.9478C39.111 23.947 39.1168 23.9332 39.0428 23.9087C39.0284 23.904 38.9308 23.9091 38.919 23.9068C38.8687 23.8978 38.9496 23.8894 38.8949 23.8808C38.8817 23.8787 38.7859 23.8786 38.7698 23.8769C38.6288 23.8623 38.8442 23.8383 38.8817 23.8342C39.0241 23.8184 38.8996 23.811 38.9556 23.7989C39.0117 23.7868 39.0818 23.8049 39.1159 23.7908C39.1862 23.7615 39.1708 23.7239 39.1752 23.6942C39.1763 23.6823 39.0485 23.6904 39.0457 23.6887C39.0133 23.6642 39.1493 23.6394 38.8947 23.6258C39.553 23.6087 38.8308 23.611 38.9626 23.5759C38.9733 23.5731 39.2846 23.5696 39.3303 23.5802C39.3759 23.5908 39.2786 23.6069 39.3499 23.6216C39.3666 23.6251 39.6583 23.6451 39.676 23.6478C39.8141 23.6691 39.3489 23.6721 39.3233 23.6733C39.0476 23.6861 39.3618 23.7105 39.3836 23.7169C39.4831 23.7463 39.4176 23.7712 39.4887 23.7958C39.5346 23.8119 39.8393 23.8134 39.83 23.8261C39.7991 23.868 39.374 23.8827 39.7426 23.9222C39.8212 23.9307 40.1543 23.9223 39.8924 23.9526C39.8759 23.9545 39.6363 23.9771 39.7879 23.9901C39.807 23.9918 39.904 23.9917 39.9122 23.9939C39.9649 24.0083 39.8876 24.018 39.9246 24.0337C39.9617 24.0495 40.0169 24.0684 39.984 24.0864C39.9643 24.0973 39.7834 24.1112 39.7391 24.1164C39.6116 24.131 39.8207 24.1467 39.6663 24.1558C39.511 24.165 39.2753 24.1471 39.175 24.1711C39.4272 24.172 39.686 24.174 39.9396 24.1754C39.9308 24.228 39.8492 24.2798 39.8604 24.3326C39.862 24.3391 39.9976 24.3324 40.0028 24.3394C40.0244 24.369 39.9277 24.3949 39.9662 24.4256C39.9965 24.4494 40.1401 24.4754 40.1762 24.5002C39.8876 24.5154 39.9856 24.5523 39.9592 24.5791C39.9501 24.5885 39.8731 24.5878 39.8479 24.5945C39.7549 24.6197 40.0099 24.6079 40.0501 24.6148C40.2213 24.6444 39.6441 24.6469 39.6584 24.6818C39.659 24.6837 39.9666 24.7063 39.9858 24.7094C40.1107 24.7292 39.8787 24.7127 39.856 24.725C39.8144 24.7476 39.7409 24.7633 39.8311 24.7899C39.8578 24.7976 40.0495 24.8161 39.9012 24.8312C39.8818 24.8331 39.7801 24.832 39.7741 24.8336C39.6748 24.8624 39.9944 24.8632 40.1026 24.8796C40.2108 24.8961 39.9902 24.9215 39.9266 24.9266C39.7622 24.9402 39.8564 24.9163 39.8402 24.9155C39.6482 24.9069 39.6812 24.9255 39.665 24.9396C39.3517 24.9417 39.3705 24.9615 39.6494 24.9543C39.6799 24.9535 39.6507 24.9425 39.665 24.9396C39.9724 24.9521 40.0118 24.9738 39.7245 24.9978C39.5899 25.0091 39.4329 24.9985 39.4903 25.0326C39.5162 25.0481 39.732 25.0422 39.7908 25.0558C39.925 25.0871 39.7237 25.1277 39.7554 25.16C39.767 25.1717 39.885 25.1603 39.897 25.1683C39.929 25.1895 39.8404 25.2082 39.8858 25.2295C39.8901 25.2315 40.0137 25.2267 40.0153 25.2334C40.0296 25.2836 39.9504 25.3274 39.9483 25.3798C39.9473 25.4052 40.0154 25.4505 40.0017 25.4767C39.9787 25.5222 39.7989 25.5782 39.8426 25.6171C39.8706 25.6425 39.9942 25.6369 40.0784 25.6478C40.2417 25.6687 39.9492 25.7058 39.9039 25.7108C39.9024 25.711 39.8733 25.6892 39.8098 25.7008C39.6776 25.7076 39.9034 25.7106 39.9039 25.7108C39.8747 25.7141 39.8466 25.7577 39.8703 25.7663C39.8832 25.7711 40.0003 25.7684 40.0048 25.7709C40.1097 25.8292 40.1394 25.8875 40.0847 25.9466C40.0823 25.9477 39.9513 25.9461 39.9473 25.9486C39.8891 25.9828 40.0494 26.0047 40.1445 26.0329C40.2397 26.0611 40.2078 26.0835 39.9829 26.1002C40.0112 26.1215 39.9117 26.1521 39.8514 26.1696C39.791 26.1872 40.0461 26.1897 40.0512 26.1912C40.2126 26.2395 40.0666 26.2673 40.0438 26.3174C40.0326 26.3412 40.0696 26.3884 40.0975 26.4141C40.12 26.4345 40.0602 26.4468 40.0984 26.4655C40.1035 26.4681 40.2171 26.4655 40.2214 26.4663C40.3573 26.4872 40.0797 26.4772 40.0301 26.4815C39.8498 26.4971 39.7537 26.5068 39.8386 26.5336C39.858 26.5398 40.2578 26.5578 40.2811 26.5691C40.3108 26.5838 40.1675 26.5782 40.2022 26.5936C40.2051 26.5949 40.2935 26.5946 40.2896 26.6041C40.2726 26.6481 40.2212 26.696 40.2301 26.7417C40.2309 26.7479 40.3711 26.7399 40.3747 26.749C40.3913 26.7913 40.3861 26.8376 40.3205 26.8789C40.3039 26.889 40.2057 26.8827 40.1766 26.8849C40.0002 26.8984 40.2565 26.9176 40.2614 26.9207C40.3845 26.9962 40.1526 27.054 40.263 27.1309C40.2695 27.1351 40.5442 27.1673 40.3086 27.1817C40.2929 27.1827 40.0519 27.1969 40.2167 27.2095C40.227 27.2103 40.3511 27.2014 40.3385 27.2169C40.3258 27.2323 40.4087 27.2572 40.2724 27.2785C40.2294 27.2852 39.9889 27.3012 40.1806 27.3212C40.194 27.3226 40.6274 27.3536 40.3284 27.3646C40.2792 27.3664 39.9627 27.3645 40.125 27.3885C40.1564 27.3931 40.227 27.3848 40.2711 27.3968C40.339 27.4153 40.2542 27.4398 40.3952 27.4626C40.4202 27.4665 40.635 27.4834 40.4719 27.4969C40.4464 27.499 40.3408 27.495 40.3289 27.5022C40.2722 27.5361 40.3429 27.5717 40.2698 27.6062C40.2441 27.6185 40.0733 27.6122 40.0275 27.6249C39.9818 27.6377 39.9378 27.6634 40.0158 27.6767C40.0939 27.69 40.3661 27.6755 40.3879 27.6954C40.4825 27.7823 40.3228 27.8683 40.2994 27.955C40.296 27.9679 40.3934 27.9572 40.3952 27.9762C40.4025 28.0461 40.4938 28.1667 40.2868 28.2274C40.121 28.276 39.9948 28.2148 39.9274 28.2519C39.8952 28.2699 40.2117 28.2892 40.2216 28.2936C40.3228 28.3358 40.1826 28.3652 40.2257 28.4032C40.2346 28.4111 40.3629 28.4034 40.369 28.41C40.3913 28.4329 40.334 28.4569 40.3445 28.4787C40.3495 28.4885 40.4475 28.4867 40.4399 28.4957C40.4229 28.5172 40.3817 28.5363 40.2899 28.5573C40.2816 28.5592 40.1597 28.5463 40.1552 28.5622C40.1482 28.588 40.0576 28.62 40.1511 28.6497C40.1793 28.6585 40.4032 28.6589 40.2485 28.6778C40.2163 28.6818 39.9474 28.6767 40.1797 28.6988C40.2183 28.7025 40.5316 28.7395 40.3297 28.7577C40.2765 28.7625 40.0565 28.7748 40.0911 28.7853C40.0966 28.7868 40.2169 28.781 40.2286 28.7898C40.2678 28.8207 40.255 28.8532 40.2927 28.8849C40.303 28.8934 40.4274 28.8808 40.4388 28.8934C40.4702 28.9282 40.4386 28.9716 40.3996 29.0056C40.385 29.0182 40.2819 29.0095 40.2707 29.0104C40.0882 29.0251 40.3345 29.0338 40.3489 29.0386C40.4349 29.0689 40.3192 29.092 40.3498 29.1199C40.3579 29.1276 40.4754 29.1221 40.4858 29.1237C40.5882 29.1396 40.3773 29.1277 40.354 29.1378C40.2882 29.166 40.2976 29.1974 40.3126 29.226C40.3183 29.2364 40.4545 29.2247 40.458 29.2341C40.4815 29.2897 40.4685 29.3476 40.3934 29.4019C40.379 29.4121 40.2741 29.4057 40.2502 29.4078C40.0826 29.4225 40.3112 29.444 40.333 29.449C40.4324 29.4715 40.3396 29.4802 40.3569 29.5001C40.4431 29.5973 40.3817 29.7172 40.3438 29.809C40.2949 29.9285 40.1952 30.0212 40.2211 30.1352C40.2226 30.1424 40.3621 30.1351 40.3652 30.1414C40.3988 30.222 40.3443 30.3013 40.3846 30.3821C40.3876 30.3888 40.5199 30.3792 40.5292 30.3898C40.5494 30.4117 40.5422 30.4393 40.4999 30.4614C40.4796 30.4721 40.3661 30.4577 40.348 30.4685C40.3054 30.4938 40.296 30.5208 40.3172 30.5467C40.3265 30.5577 40.4618 30.5411 40.4633 30.5554C40.4767 30.653 40.5 30.7489 40.3249 30.8476C40.3129 30.8543 40.038 30.8603 40.0907 30.8746C40.167 30.8757 40.2567 30.8757 40.3383 30.8761C40.3822 31.0183 40.2869 31.1589 40.2722 31.3014C40.2716 31.3074 40.4172 31.2971 40.4168 31.3087C40.4147 31.376 40.455 31.4414 40.3103 31.5103C40.2961 31.5171 40.0399 31.5136 40.0786 31.5337C40.0857 31.5373 40.1199 31.5676 40.1755 31.5755C40.1839 31.5765 40.3035 31.571 40.307 31.5808C40.3251 31.6376 40.2978 31.6971 40.2247 31.7538C40.2127 31.7629 40.0854 31.7532 40.0757 31.7597C40.0081 31.8059 40.1049 31.8562 39.9893 31.9004C39.9114 31.9299 39.6913 31.919 39.4746 31.9347C39.444 31.9369 39.4391 31.9552 39.3131 31.9562C38.996 31.9586 38.6489 31.9498 38.3109 31.9534C38.2381 31.9542 38.3165 31.9787 38.1406 31.9642C38.1289 31.9632 38.0705 31.9454 38.0108 31.941C37.9696 31.9379 37.8413 31.9434 37.7885 31.9372C37.7358 31.931 37.8433 31.9242 37.7812 31.9139C37.7184 31.9035 37.5725 31.9081 37.5553 31.8875ZM39.5817 26.2488C39.4592 26.2651 39.9078 26.2675 39.8005 26.2499C39.7948 26.249 39.5877 26.2479 39.5817 26.2488ZM39.5108 24.2795C39.3129 24.3008 39.6039 24.3153 39.7567 24.3003C39.9094 24.2853 39.5708 24.273 39.5108 24.2795ZM39.3663 24.0589C39.2103 24.0837 39.8465 24.0876 39.7179 24.061C39.7106 24.0595 39.3754 24.0574 39.3663 24.0589ZM39.4129 31.8618C39.4069 31.8621 39.4011 31.8752 39.407 31.8755C39.5495 31.8826 39.561 31.8562 39.4129 31.8618ZM39.2091 23.8399C39.123 23.8477 39.2223 23.87 39.3294 23.8604C39.4154 23.8526 39.3161 23.8302 39.2091 23.8399ZM39.1029 27.0978C39.0962 27.0981 39.0902 27.1075 39.1279 27.1073C39.2497 27.1067 39.2153 27.0936 39.1029 27.0978ZM39.2017 23.4678C39.1778 23.5227 38.6523 23.5561 38.7116 23.4962C38.7223 23.4854 38.8792 23.5196 38.9265 23.5058C39.0128 23.4805 38.6829 23.4637 38.8597 23.438C38.8921 23.4333 39.2043 23.4646 39.2025 23.4678C39.2022 23.4678 39.202 23.4678 39.2017 23.4678ZM39.0428 26.2582C39.0369 26.2585 39.0312 26.2715 39.0371 26.2719C39.1796 26.2789 39.191 26.2526 39.0428 26.2582ZM38.8255 27.6484C38.8128 27.6492 38.801 27.6795 38.8126 27.6805C39.0456 27.6963 39.0701 27.635 38.8255 27.6484ZM38.7145 25.3784C38.5712 25.3642 38.5543 25.3471 38.7343 25.3358C38.7247 25.3499 38.7233 25.3642 38.7145 25.3784ZM21.6953 31.8875C21.6562 31.8397 21.698 31.777 21.7553 31.7294C21.7731 31.7145 21.8526 31.722 21.8685 31.7117C21.8994 31.6916 21.8604 31.6728 21.8972 31.6529C21.9098 31.6463 22.0358 31.6545 22.0461 31.6476C22.1017 31.6097 22.0697 31.5738 22.0964 31.5354C22.2285 31.3461 22.2758 31.1601 22.3332 30.9686C22.352 30.9054 22.4663 30.8287 22.4163 30.7634C22.4104 30.7558 22.2998 30.7604 22.2907 30.7589C22.1512 30.7362 22.3744 30.7438 22.4041 30.7289C22.5211 30.67 22.5313 30.6045 22.4886 30.5479C22.4702 30.5238 22.2506 30.5479 22.3738 30.5237C22.3822 30.522 22.4996 30.5281 22.5121 30.5215C22.5402 30.5065 22.5193 30.478 22.5286 30.4664C22.5471 30.444 22.5459 30.4403 22.5472 30.4191C22.5501 30.3902 22.6084 30.3557 22.5819 30.3247C22.5758 30.318 22.4555 30.3268 22.435 30.3162C22.4146 30.3056 22.4248 30.2776 22.4531 30.2682C22.4815 30.2587 22.5761 30.2628 22.5978 30.2611C22.7808 30.2473 22.5273 30.2149 22.5211 30.2108C22.4143 30.1348 22.5586 30.0696 22.5582 29.9983C22.5576 29.9441 22.5099 29.8862 22.5165 29.8347C22.5247 29.7733 22.5899 29.7212 22.5787 29.6616C22.5777 29.6553 22.4362 29.6627 22.4346 29.655C22.4182 29.5733 22.4336 29.4922 22.5291 29.4109C22.5388 29.4027 22.6631 29.4132 22.6802 29.4051C22.7823 29.3552 23.0275 29.2763 22.4866 29.2466C22.5078 29.2128 22.5296 29.1718 22.6386 29.1416C22.7088 29.1221 22.8441 29.141 22.7864 29.1171C22.7735 29.1117 22.655 29.1187 22.6447 29.1106C22.6013 29.0765 22.6398 29.0392 22.5786 29.0055C22.5658 28.9986 22.4596 29.0005 22.4405 28.9986C22.2856 28.9822 22.5416 28.955 22.5602 28.9491C22.699 28.904 22.6444 28.871 22.6478 28.8289C22.6486 28.8192 22.506 28.8307 22.5016 28.8213C22.4812 28.7726 22.4935 28.7221 22.5568 28.6744C22.5712 28.6638 22.6927 28.6736 22.7058 28.6685C22.7621 28.6462 22.5326 28.6412 22.5822 28.6198C22.5924 28.6152 22.6964 28.6178 22.7078 28.617C22.8872 28.6041 22.6331 28.5928 22.6274 28.5895C22.5508 28.5475 22.8161 28.5207 22.7785 28.4801C22.7737 28.4753 22.6421 28.4862 22.6368 28.4726C22.6004 28.3817 22.6366 28.2856 22.7419 28.1957C22.7581 28.1817 22.857 28.1917 22.8691 28.1908C23.0596 28.1765 22.8044 28.1672 22.7948 28.1626C22.7256 28.1266 22.9396 28.093 22.6357 28.0686C22.7412 27.9162 22.5705 27.7646 22.8428 27.6135C22.8459 27.6116 22.9716 27.615 22.9774 27.6112C23.0479 27.565 22.8526 27.5739 22.6137 27.5434C22.5537 27.5357 22.8421 27.5123 22.8633 27.5102C22.9412 27.5027 23.1282 27.5105 23.1432 27.5079C23.2617 27.487 22.6434 27.4905 22.6432 27.4623C22.6442 27.4614 22.758 27.4651 22.7693 27.4627C22.8049 27.4554 22.7597 27.4481 22.7988 27.4409C22.8895 27.4244 23.1899 27.4185 23.0151 27.3934C22.9924 27.3902 22.6416 27.3951 22.6582 27.3699C22.6651 27.3599 22.6591 27.3154 22.6818 27.303C22.7045 27.2906 22.8176 27.2991 22.8224 27.2982C22.9719 27.2647 23.0339 27.2774 23.2551 27.2606C23.4756 27.2438 22.9498 27.2485 22.8911 27.2416C22.8326 27.2348 22.9559 27.2102 22.9988 27.2042C23.0417 27.1981 23.1135 27.2057 23.1378 27.2003C23.2963 27.1647 22.8768 27.1847 22.7933 27.173C22.5957 27.1453 22.9857 27.1238 23.0239 27.0985C23.0342 27.0917 22.9454 27.0973 22.9371 27.0912C22.9054 27.067 23.027 27.0525 22.9155 27.025C22.8973 27.0205 22.6629 26.9983 22.8349 26.984C22.8597 26.9819 22.9569 26.9877 22.9786 26.9774C23.0113 26.962 23.0325 26.9344 23.0001 26.9178C22.976 26.9056 22.8159 26.9196 22.8657 26.9043C22.8879 26.8974 22.9815 26.9101 23.0154 26.8973C23.0493 26.8845 23.0452 26.8519 23.042 26.8395C23.0387 26.8271 22.9172 26.8339 22.9091 26.8329C22.8622 26.8268 22.8036 26.8031 22.8038 26.801C22.7889 26.695 22.9937 26.5973 22.9259 26.4942C22.9208 26.4861 22.7927 26.4915 22.7906 26.4902C22.7369 26.4625 23.0774 26.4844 23.1914 26.465C22.9315 26.4678 22.9786 26.4564 22.9501 26.4369C22.9361 26.4275 22.8355 26.4326 22.8252 26.4317C22.6723 26.4178 22.8698 26.408 22.9102 26.4055C23.0587 26.3963 22.8832 26.3863 22.9825 26.38C23.081 26.3737 23.2272 26.3881 23.2253 26.3694C23.1322 26.3642 22.8891 26.3781 22.8497 26.3639C22.7007 26.3102 22.8914 26.2101 22.9113 26.167C22.9311 26.124 22.9139 26.1101 22.9475 26.085C23.0083 26.0397 22.8279 26.0563 22.7454 26.0282C22.6628 26 23.1066 26.0137 23.202 26.0096C23.2974 26.0056 23.1992 26.0013 23.2516 25.9963C23.3041 25.9914 23.3689 26.0021 23.3886 25.9905C23.4083 25.9789 23.2386 25.9471 23.1389 25.943C22.9275 25.9343 22.7057 25.9486 22.7836 25.9179C22.7883 25.9161 22.905 25.9218 22.9167 25.9151C23.0066 25.8613 23.0122 25.8055 23.0916 25.7518C23.1027 25.7444 23.2325 25.751 23.2405 25.7467C23.3235 25.702 23.1046 25.718 22.8615 25.6934C23.1851 25.699 23.383 25.6854 23.3849 25.6514C23.3862 25.631 23.2449 25.6345 23.1453 25.6213C23.1152 25.6174 23.2123 25.6029 23.1458 25.6003C22.9285 25.5917 22.6853 25.6053 22.7822 25.5703C22.7868 25.5687 22.9057 25.5736 22.9129 25.5683C22.96 25.534 22.7328 25.5299 22.7053 25.4928C22.6837 25.4637 22.8222 25.412 22.8448 25.3789C23.2086 25.3796 23.1253 25.3484 22.8745 25.3357C22.8847 25.3142 22.8705 25.291 22.9052 25.2702C22.917 25.2631 23.0224 25.2678 23.0338 25.2669C23.2123 25.2531 22.9682 25.2437 22.9587 25.2391C22.8657 25.1888 23.0506 25.1479 22.8699 25.0999C22.8634 25.0982 22.6106 25.0955 22.7952 25.0827C22.8079 25.0818 22.9229 25.0977 22.9318 25.0751C22.9407 25.0525 23.0762 25.01 22.959 24.9787C22.9309 24.9711 22.7257 24.9519 22.886 24.9365C22.9078 24.9345 22.9802 24.9367 23.0206 24.9338C23.1491 24.9242 22.8936 24.919 23.1107 24.9077C23.3277 24.8965 23.4902 24.8731 23.3405 24.8415C23.3361 24.8405 23.1336 24.833 23.1368 24.8231C23.1421 24.8072 23.1843 24.7847 23.183 24.7682C23.1823 24.7602 23.0566 24.7653 23.0543 24.7639C22.9838 24.7106 23.0959 24.6727 23.1445 24.6156C23.1537 24.6051 22.9823 24.575 23.1178 24.5547C23.2662 24.5325 23.8834 24.5553 23.7363 24.5042C23.6775 24.4836 22.8945 24.4574 23.3002 24.4204C23.1996 24.3484 23.4073 24.2819 23.2637 24.2098C23.2574 24.2066 23.0388 24.1963 23.0418 24.1887C23.0466 24.1774 23.1488 24.1712 23.1555 24.1631C23.1863 24.1292 23.0989 24.0982 23.1125 24.0656C23.1174 24.0532 23.223 24.0575 23.2289 24.0427C23.2347 24.028 23.0957 24.0181 23.1628 23.9981C23.214 23.983 23.4983 23.9678 23.5314 23.9478C23.251 23.947 23.2568 23.9332 23.1828 23.9087C23.1684 23.904 23.0708 23.9091 23.059 23.9068C23.0087 23.8978 23.0896 23.8894 23.0349 23.8808C23.0217 23.8787 22.9259 23.8786 22.9098 23.8769C22.7688 23.8623 22.9842 23.8383 23.0217 23.8342C23.1641 23.8184 23.0396 23.811 23.0956 23.7989C23.1517 23.7868 23.2218 23.8049 23.2559 23.7908C23.3262 23.7615 23.3108 23.7239 23.3152 23.6942C23.3163 23.6823 23.1885 23.6904 23.1857 23.6887C23.1533 23.6642 23.2893 23.6394 23.0347 23.6258C23.693 23.6087 22.9708 23.611 23.1026 23.5759C23.1133 23.5731 23.4246 23.5696 23.4703 23.5802C23.5159 23.5908 23.4186 23.6069 23.4899 23.6216C23.5066 23.6251 23.7983 23.6451 23.816 23.6478C23.9541 23.6691 23.4889 23.6721 23.4633 23.6733C23.1876 23.6861 23.5018 23.7105 23.5236 23.7169C23.6231 23.7463 23.5576 23.7712 23.6287 23.7958C23.6746 23.8119 23.9793 23.8134 23.97 23.8261C23.9391 23.868 23.514 23.8827 23.8826 23.9222C23.9612 23.9307 24.2943 23.9223 24.0324 23.9526C24.0159 23.9545 23.7763 23.9771 23.9279 23.9901C23.947 23.9918 24.044 23.9917 24.0522 23.9939C24.1049 24.0083 24.0276 24.018 24.0646 24.0337C24.1017 24.0495 24.1569 24.0684 24.124 24.0864C24.1043 24.0973 23.9234 24.1112 23.8791 24.1164C23.7516 24.131 23.9607 24.1467 23.8063 24.1558C23.651 24.165 23.4153 24.1471 23.315 24.1711C23.5672 24.172 23.826 24.174 24.0796 24.1754C24.0708 24.228 23.9892 24.2798 24.0004 24.3326C24.002 24.3391 24.1376 24.3324 24.1428 24.3394C24.1644 24.369 24.0677 24.3949 24.1062 24.4256C24.1365 24.4494 24.2801 24.4754 24.3162 24.5002C24.0276 24.5154 24.1256 24.5523 24.0992 24.5791C24.0901 24.5885 24.0131 24.5878 23.9879 24.5945C23.8949 24.6197 24.1499 24.6079 24.1901 24.6148C24.3613 24.6444 23.7841 24.6469 23.7984 24.6818C23.799 24.6837 24.1066 24.7063 24.1258 24.7094C24.2507 24.7292 24.0187 24.7127 23.996 24.725C23.9544 24.7476 23.8809 24.7633 23.9711 24.7899C23.9978 24.7976 24.1895 24.8161 24.0412 24.8312C24.0218 24.8331 23.9201 24.832 23.9141 24.8336C23.8148 24.8624 24.1344 24.8632 24.2426 24.8796C24.3508 24.8961 24.1302 24.9215 24.0666 24.9266C23.9022 24.9402 23.9964 24.9163 23.9802 24.9155C23.7882 24.9069 23.8212 24.9255 23.805 24.9396C23.4917 24.9417 23.5105 24.9615 23.7894 24.9543C23.8199 24.9535 23.7907 24.9425 23.805 24.9396C24.1124 24.9521 24.1518 24.9738 23.8645 24.9978C23.7299 25.0091 23.5729 24.9985 23.6303 25.0326C23.6562 25.0481 23.872 25.0422 23.9308 25.0558C24.065 25.0871 23.8637 25.1277 23.8954 25.16C23.907 25.1717 24.025 25.1603 24.037 25.1683C24.069 25.1895 23.9804 25.2082 24.0258 25.2295C24.0301 25.2315 24.1537 25.2267 24.1553 25.2334C24.1696 25.2836 24.0904 25.3274 24.0883 25.3798C24.0872 25.4052 24.1554 25.4505 24.1417 25.4767C24.1187 25.5222 23.9389 25.5782 23.9826 25.6171C24.0106 25.6425 24.1342 25.6369 24.2184 25.6478C24.3817 25.6687 24.0892 25.7058 24.0439 25.7108C24.0424 25.711 24.0133 25.6892 23.9498 25.7008C23.8176 25.7076 24.0434 25.7106 24.0439 25.7108C24.0147 25.7141 23.9866 25.7577 24.0103 25.7663C24.0232 25.7711 24.1403 25.7684 24.1448 25.7709C24.2497 25.8292 24.2794 25.8875 24.2247 25.9466C24.2223 25.9477 24.0913 25.9461 24.0873 25.9486C24.0291 25.9828 24.1894 26.0047 24.2845 26.0329C24.3797 26.0611 24.3478 26.0835 24.1229 26.1002C24.1512 26.1215 24.0517 26.1521 23.9914 26.1696C23.931 26.1872 24.1861 26.1897 24.1912 26.1912C24.3526 26.2395 24.2066 26.2673 24.1838 26.3174C24.1726 26.3412 24.2096 26.3884 24.2375 26.4141C24.26 26.4345 24.2002 26.4468 24.2384 26.4655C24.2435 26.4681 24.3571 26.4655 24.3614 26.4663C24.4973 26.4872 24.2197 26.4772 24.1701 26.4815C23.9898 26.4971 23.8937 26.5068 23.9786 26.5336C23.998 26.5398 24.3978 26.5578 24.4211 26.5691C24.4508 26.5838 24.3075 26.5782 24.3422 26.5936C24.3451 26.5949 24.4335 26.5946 24.4296 26.6041C24.4126 26.6481 24.3612 26.696 24.3701 26.7417C24.3709 26.7479 24.5111 26.7399 24.5147 26.749C24.5313 26.7913 24.5261 26.8376 24.4605 26.8789C24.4439 26.889 24.3457 26.8827 24.3166 26.8849C24.1402 26.8984 24.3965 26.9176 24.4014 26.9207C24.5245 26.9962 24.2926 27.054 24.403 27.1309C24.4095 27.1351 24.6842 27.1673 24.4486 27.1817C24.4329 27.1827 24.1919 27.1969 24.3567 27.2095C24.367 27.2103 24.4911 27.2014 24.4784 27.2169C24.4658 27.2323 24.5487 27.2572 24.4123 27.2785C24.3694 27.2852 24.1289 27.3012 24.3206 27.3212C24.334 27.3226 24.7674 27.3536 24.4684 27.3646C24.4192 27.3664 24.1027 27.3645 24.2649 27.3885C24.2964 27.3931 24.367 27.3848 24.4111 27.3968C24.479 27.4153 24.3942 27.4398 24.5352 27.4626C24.5602 27.4665 24.775 27.4834 24.6119 27.4969C24.5864 27.499 24.4808 27.495 24.4689 27.5022C24.4122 27.5361 24.4829 27.5717 24.4098 27.6062C24.3841 27.6185 24.2133 27.6122 24.1675 27.6249C24.1218 27.6377 24.0778 27.6634 24.1558 27.6767C24.2339 27.69 24.5061 27.6755 24.5279 27.6954C24.6225 27.7823 24.4628 27.8683 24.4394 27.955C24.436 27.9679 24.5334 27.9572 24.5352 27.9762C24.5425 28.0461 24.6338 28.1667 24.4268 28.2274C24.261 28.276 24.1348 28.2148 24.0674 28.2519C24.0352 28.2699 24.3517 28.2892 24.3616 28.2936C24.4628 28.3358 24.3226 28.3652 24.3657 28.4032C24.3746 28.4111 24.5028 28.4034 24.509 28.41C24.5313 28.4329 24.474 28.4569 24.4845 28.4787C24.4895 28.4885 24.5875 28.4867 24.5799 28.4957C24.5629 28.5172 24.5217 28.5363 24.4299 28.5573C24.4216 28.5592 24.2997 28.5463 24.2952 28.5622C24.2882 28.588 24.1976 28.62 24.2911 28.6497C24.3193 28.6585 24.5432 28.6589 24.3885 28.6778C24.3563 28.6818 24.0874 28.6767 24.3197 28.6988C24.3583 28.7025 24.6716 28.7395 24.4697 28.7577C24.4165 28.7625 24.1965 28.7748 24.2311 28.7853C24.2366 28.7868 24.3569 28.781 24.3686 28.7898C24.4078 28.8207 24.395 28.8532 24.4327 28.8849C24.443 28.8934 24.5674 28.8808 24.5788 28.8934C24.6102 28.9282 24.5786 28.9716 24.5396 29.0056C24.525 29.0182 24.4219 29.0095 24.4107 29.0104C24.2282 29.0251 24.4745 29.0338 24.4889 29.0386C24.5749 29.0689 24.4592 29.092 24.4898 29.1199C24.4979 29.1276 24.6154 29.1221 24.6258 29.1237C24.7282 29.1396 24.5173 29.1277 24.494 29.1378C24.4282 29.166 24.4376 29.1974 24.4526 29.226C24.4583 29.2364 24.5945 29.2247 24.598 29.2341C24.6215 29.2897 24.6085 29.3476 24.5334 29.4019C24.519 29.4121 24.4141 29.4057 24.3902 29.4078C24.2226 29.4225 24.4512 29.444 24.473 29.449C24.5724 29.4715 24.4796 29.4802 24.4969 29.5001C24.5831 29.5973 24.5217 29.7172 24.4838 29.809C24.4349 29.9285 24.3352 30.0212 24.3611 30.1352C24.3626 30.1424 24.5021 30.1351 24.5052 30.1414C24.5388 30.222 24.4843 30.3013 24.5246 30.3821C24.5277 30.3888 24.6599 30.3792 24.6692 30.3898C24.6894 30.4117 24.6822 30.4393 24.6399 30.4614C24.6196 30.4721 24.5061 30.4577 24.488 30.4685C24.4454 30.4938 24.436 30.5208 24.4572 30.5467C24.4665 30.5577 24.6018 30.5411 24.6033 30.5554C24.6167 30.653 24.64 30.7489 24.4649 30.8476C24.4529 30.8543 24.178 30.8603 24.2307 30.8746C24.307 30.8757 24.3967 30.8757 24.4783 30.8761C24.5222 31.0183 24.4269 31.1589 24.4122 31.3014C24.4116 31.3074 24.5572 31.2971 24.5568 31.3087C24.5547 31.376 24.595 31.4414 24.4503 31.5103C24.4361 31.5171 24.1799 31.5136 24.2186 31.5337C24.2257 31.5373 24.2599 31.5676 24.3155 31.5755C24.3239 31.5765 24.4435 31.571 24.447 31.5808C24.4651 31.6376 24.4378 31.6971 24.3647 31.7538C24.3527 31.7629 24.2254 31.7532 24.2157 31.7597C24.1481 31.8059 24.2449 31.8562 24.1293 31.9004C24.0514 31.9299 23.8313 31.919 23.6146 31.9347C23.584 31.9369 23.5791 31.9552 23.4531 31.9562C23.136 31.9586 22.7889 31.9498 22.4509 31.9534C22.3781 31.9542 22.4565 31.9787 22.2806 31.9642C22.2689 31.9632 22.2105 31.9454 22.1508 31.941C22.1096 31.9379 21.9813 31.9434 21.9285 31.9372C21.8758 31.931 21.9833 31.9242 21.9212 31.9139C21.8584 31.9035 21.7125 31.9081 21.6953 31.8875ZM23.7217 26.2488C23.5992 26.2651 24.0478 26.2675 23.9405 26.2499C23.9348 26.249 23.7277 26.2479 23.7217 26.2488ZM23.6508 24.2795C23.4529 24.3008 23.7439 24.3153 23.8967 24.3003C24.0494 24.2853 23.7108 24.273 23.6508 24.2795ZM23.5063 24.0589C23.3503 24.0837 23.9865 24.0876 23.8579 24.061C23.8506 24.0595 23.5154 24.0574 23.5063 24.0589ZM23.5529 31.8618C23.5469 31.8621 23.5411 31.8752 23.547 31.8755C23.6895 31.8826 23.701 31.8562 23.5529 31.8618ZM23.3491 23.8399C23.263 23.8477 23.3623 23.87 23.4694 23.8604C23.5554 23.8526 23.4561 23.8302 23.3491 23.8399ZM23.2429 27.0978C23.2362 27.0981 23.2302 27.1075 23.2679 27.1073C23.3897 27.1067 23.3553 27.0936 23.2429 27.0978ZM23.3417 23.4678C23.3178 23.5227 22.7923 23.5561 22.8516 23.4962C22.8623 23.4854 23.0191 23.5196 23.0665 23.5058C23.1528 23.4805 22.8229 23.4637 22.9997 23.438C23.0321 23.4333 23.3443 23.4646 23.3425 23.4678C23.3422 23.4678 23.342 23.4678 23.3417 23.4678ZM23.1828 26.2582C23.1769 26.2585 23.1712 26.2715 23.1771 26.2719C23.3196 26.2789 23.331 26.2526 23.1828 26.2582ZM22.9655 27.6484C22.9528 27.6492 22.941 27.6795 22.9526 27.6805C23.1855 27.6963 23.2101 27.635 22.9655 27.6484ZM22.8545 25.3784C22.7112 25.3642 22.6943 25.3471 22.8743 25.3358C22.8647 25.3499 22.8633 25.3642 22.8545 25.3784ZM11.7127 12.8676C11.4698 13.0466 11.2343 13.3591 11.1862 13.6875C11.1857 13.6944 11.1852 13.7012 11.1847 13.708C11.1669 13.9482 11.0874 13.8266 11.0715 13.9924C11.0406 14.3166 11.0796 14.6187 11.0428 14.9392C11.0302 15.0454 10.9042 14.9132 10.8939 15.0245C10.8383 15.6347 10.8703 16.212 10.8436 16.8301C10.7115 19.8748 10.6642 22.8677 10.6068 25.9496C10.588 26.9658 10.4737 28.2011 10.5237 29.2508C10.5296 29.3733 10.6402 29.3002 10.6493 29.3235C10.7888 29.6892 10.5656 29.5676 10.5359 29.8064C10.4189 30.7539 10.4087 31.8076 10.4514 32.7195C10.4698 33.1074 10.6894 32.7184 10.5662 33.1091C10.5578 33.1362 10.4404 33.0378 10.4279 33.1442C10.3998 33.3854 10.4207 33.8432 10.4114 34.0302C10.3929 34.3906 10.3941 34.4502 10.3928 34.7911C10.3899 35.2571 10.3316 35.8113 10.3582 36.3112C10.3642 36.418 10.4845 36.2767 10.505 36.4469C10.5254 36.6172 10.5152 37.0679 10.4869 37.2198C10.4585 37.3718 10.3639 37.3071 10.3422 37.334C10.1936 37.5136 10.3328 37.891 10.3937 38.0625C10.4078 38.0923 10.4184 38.1129 10.4199 38.1221C10.5526 38.9782 11.0849 39.7266 11.9535 39.8618C12.0346 39.8726 12.1165 39.8773 12.2 39.876C12.9731 39.8665 13.7768 39.8308 14.502 39.8365C15.4899 39.8447 16.3271 39.9099 17.2868 39.8987C17.3881 39.8977 17.2694 39.7562 17.3931 39.7546C18.7074 39.7382 20.0125 39.7536 21.3211 39.8491C21.4523 39.8588 21.2832 39.9831 21.4143 40.0002C22.2171 40.1023 23.4872 40.3475 23.964 39.8066C24.5078 39.8278 25.1679 39.8496 25.6544 39.9586C25.968 40.0288 25.6634 40.1641 26.0487 40.1064C26.1356 40.0935 26.0226 39.975 26.1529 39.9647C26.7016 39.9213 27.301 39.9598 27.8438 39.8986C27.9542 39.8858 27.9241 39.7796 27.9553 39.7605C28.2182 39.6056 28.6559 39.8616 28.7513 39.8802C29.4778 40.019 30.0084 39.9644 30.6852 39.9678C30.8422 39.9686 30.6566 39.826 30.8077 39.8216C31.5915 39.8012 32.4035 39.8135 33.171 39.8768C33.3417 39.8912 33.1847 40.0127 33.2663 40.0258C33.626 40.0821 33.7057 39.8526 34.0507 39.9022C34.1235 39.9124 34.0825 40.0164 34.0958 40.0278C34.3034 40.2072 34.4838 39.9531 34.5372 39.9474C35.2128 39.8708 35.6446 40.1361 36.2972 40.0985C36.3753 40.0937 36.1992 39.9621 36.4187 39.9568C37.8809 39.9204 39.4272 39.9566 40.8745 40.0619C41.0996 40.0781 40.9389 40.177 40.9531 40.1891C41.1839 40.3796 41.3332 40.1244 41.4066 40.1148C41.9854 40.0456 42.5261 40.2596 42.9194 39.9557C44.8865 40.0403 46.8463 39.9471 48.8 40.0477C49.1937 40.0728 49.5978 39.9933 49.9719 39.8067C49.9961 39.794 50.0253 39.9263 50.0751 39.8992C50.652 39.528 50.4192 39.4242 50.4296 38.9868C50.4255 38.8884 50.8027 38.7202 50.8303 38.6855C50.9354 38.6046 51.0831 38.7652 51.1081 38.7337C51.2984 38.4432 50.7332 38.3682 50.7053 38.0625C50.7039 38.0481 50.7032 38.0332 50.7032 38.0177C50.7042 38.0035 50.818 38.0631 50.8293 38.0251C50.8649 37.9068 50.8197 37.7894 50.8588 37.6737C50.9495 37.4087 51.2499 37.3144 51.0751 36.9097C51.0524 36.8584 50.7016 36.9367 50.7182 36.5316C50.7251 36.3701 50.7191 35.6553 50.7418 35.4549C50.7645 35.2548 50.8776 35.3922 50.8825 35.378C51.0319 34.8388 51.0939 35.0433 51.3151 34.7731C51.5356 34.5031 51.0098 34.5779 50.9511 34.4678C50.8926 34.3575 51.0159 33.9623 51.0588 33.8651C51.1017 33.768 51.1735 33.8891 51.1978 33.8028C51.3563 33.2304 50.9368 33.5515 50.8533 33.3629C50.6557 32.9182 51.0457 32.5719 51.0839 32.1648C51.0942 32.0546 51.0054 32.1445 50.9971 32.0464C50.9654 31.658 51.087 31.4243 50.9755 30.9824C50.9573 30.9101 50.7229 30.5528 50.8949 30.3215C50.9197 30.2888 51.0169 30.3818 51.0386 30.2163C51.0713 29.9689 51.0925 29.5233 51.0601 29.2574C51.036 29.0612 50.8759 29.2861 50.9257 29.0391C50.9479 28.9293 51.0415 29.1328 51.0754 28.9265C51.1093 28.7213 51.1052 28.1966 51.102 27.997C51.0987 27.7977 50.9772 27.9068 50.9691 27.8907C50.9222 27.7932 50.8636 27.4108 50.8638 27.377C50.8489 25.6722 51.0537 24.1002 50.9859 22.4404C50.9808 22.3102 50.8527 22.397 50.8506 22.3771C50.7969 21.9312 51.1374 22.2827 51.2514 21.9713C50.9915 22.0163 51.0386 21.8324 51.0101 21.5183C50.9961 21.3669 50.8955 21.4494 50.8852 21.4355C50.7323 21.2111 50.9298 21.0548 50.9702 21.0145C51.1187 20.8659 50.9432 20.7041 51.0425 20.6029C51.141 20.5018 51.2872 20.7345 51.2853 20.4333C51.1922 20.3488 50.9491 20.5724 50.9097 20.3437C50.7607 19.4808 50.9514 17.87 50.9713 17.1761C50.9911 16.4837 50.9739 16.26 51.0075 15.8565C51.0683 15.1276 50.8879 15.3947 50.8054 14.9422C50.7228 14.4883 51.1666 14.7089 51.262 14.6437C51.3574 14.5797 51.2592 14.5097 51.3116 14.43C51.3641 14.3506 51.4289 14.5225 51.4486 14.3358C51.4635 14.1942 51.3698 13.8668 51.2801 13.6875C51.2514 13.6288 51.2211 13.5882 51.1962 13.5737C50.9719 13.4551 50.7881 13.6716 50.7977 13.2549C50.7969 13.2296 50.9287 13.2846 50.919 13.1876C50.8361 12.4031 50.1922 11.6959 49.4089 11.4179C49.3002 11.3788 49.432 11.2779 49.3661 11.2538C49.0009 11.133 48.8727 11.1884 48.8 11.2633C48.7293 11.3381 48.6914 11.4505 48.4998 11.5686C48.5884 11.2449 48.3702 11.047 47.8237 11.0451C47.4953 11.0438 47.5518 11.1851 47.3394 11.2847C47.2756 11.3148 47.0432 11.2177 47.0011 11.2842C46.8622 11.5015 47.0811 11.7447 46.5177 11.6478C46.493 11.6432 46.5717 11.5243 46.4863 11.5171C45.9342 11.47 45.8682 11.6972 45.2714 11.7247C44.8037 11.7463 43.9718 11.6078 43.4391 11.5852C43.4503 11.2214 42.9473 11.3047 42.7432 11.5555C42.3975 11.5453 42.0242 11.5595 41.6901 11.5248C41.5751 11.513 41.6507 11.4076 41.6362 11.3962C41.4139 11.2177 41.2636 11.4618 41.189 11.4713C40.3804 11.5643 39.7215 11.3794 38.9498 11.5601C38.9224 11.5666 38.8781 11.8194 38.6718 11.6348C38.6584 11.6221 38.9133 11.5071 38.5503 11.4982C38.1872 11.4893 37.5027 11.3538 36.9987 11.471C36.8767 11.4991 36.5681 11.7043 36.3205 11.544C36.2875 11.5222 36.3236 11.4498 36.276 11.4094C36.1221 11.2809 36.038 11.5364 35.8571 11.3193C35.6761 11.1023 35.2998 10.9398 34.7914 11.0895C34.7752 11.0939 34.6549 11.2964 34.4951 11.2932C34.2398 11.2879 33.8776 11.2457 33.6111 11.247C33.4835 11.2477 33.5652 11.3734 33.543 11.3757C32.6852 11.4462 32.0747 11.3341 31.1557 11.2855C30.9872 11.2763 30.5031 11.4477 30.177 11.3122C29.8189 11.1638 30.1868 10.5466 29.3637 10.6937C29.0317 10.7525 28.6114 11.5355 28.0148 11.1298C26.8577 11.2304 25.7876 11.0227 24.6272 11.1663C24.575 11.1726 24.41 11.3912 24.2874 11.3882C24.1053 11.3834 24.0053 11.2812 23.8752 11.2745C23.3304 11.2437 22.8317 11.3311 22.3064 11.3175C22.1069 11.3126 22.1767 11.207 21.9388 11.2011C21.701 11.1953 21.5425 11.3343 21.2203 11.2672C20.977 11.216 20.7337 10.9317 20.4107 10.8986C20.3984 11.179 20.1766 11.1732 19.7823 11.2472C19.7066 11.2616 19.7878 11.3592 19.752 11.371C19.6061 11.4213 19.471 11.3404 19.3325 11.3952C19.2988 11.4083 19.2972 11.5041 19.2697 11.5202C19.0354 11.6612 18.6495 11.4458 18.5832 11.4083C18.3291 11.2659 18.2104 11.3904 18.0155 11.3344C17.821 11.2783 18.1119 11.2082 17.8846 11.1741C17.4135 11.1038 16.8083 11.1192 16.3299 11.1148C16.139 11.1137 16.2692 11.2415 16.2419 11.2443C15.8471 11.2767 15.448 11.1407 15.2291 11.3953C14.9554 10.737 14.9911 11.4592 14.4269 11.3274C14.3824 11.3167 14.3259 11.0054 14.4965 10.9597C14.6671 10.9141 14.9259 11.0114 15.1626 10.9401C15.2187 10.9234 15.5398 10.6317 15.5836 10.614C15.9269 10.4759 15.9755 10.9411 15.9937 10.9667C16.1996 11.2424 16.592 10.9282 16.6954 10.9064C17.1681 10.8069 17.5698 10.8724 17.9652 10.8013C18.2239 10.7554 18.2492 10.4507 18.4522 10.46C19.1273 10.4909 19.363 10.916 19.9991 10.5474C20.1355 10.4688 20 10.1357 20.4888 10.3976C20.5195 10.4141 20.8823 10.6537 21.092 10.5021C21.1183 10.483 21.1175 10.386 21.1522 10.3778C21.385 10.3251 21.5402 10.4024 21.7937 10.3654C22.0472 10.3283 22.3521 10.2731 22.6415 10.306C22.8159 10.3257 23.0398 10.5066 23.1233 10.5509C23.3591 10.6784 23.6119 10.4693 23.758 10.6237C23.9053 10.779 23.6173 11.0147 24.0035 11.115C24.0178 10.8628 24.0507 10.604 24.0737 10.3504C24.9202 10.3592 25.7531 10.4408 26.6025 10.4296C26.7078 10.428 26.6001 10.2924 26.713 10.2872C27.1892 10.2656 27.6052 10.3623 28.0991 10.3238C28.4814 10.2935 28.9006 10.1499 29.3004 10.1138C29.5445 10.4024 30.1377 10.3044 30.5687 10.3308C30.7196 10.3399 30.7095 10.4169 30.8169 10.4421C31.2219 10.5351 31.0321 10.2801 31.1431 10.2399C31.6195 10.0687 31.6602 10.6459 32.2218 10.6316C32.2516 10.631 32.6153 10.3234 32.6654 10.3042C32.9837 10.1793 32.7181 10.4113 32.9173 10.434C33.281 10.4756 33.5337 10.5491 33.9604 10.4589C34.0848 10.4322 34.3833 10.2405 34.6249 10.3888C34.6567 10.4082 34.6391 10.5099 34.6647 10.5159C35.1278 10.6152 35.14 10.2956 35.4046 10.1874C35.6693 10.0792 36.0781 10.2998 36.1613 10.3634C36.379 10.5278 35.9946 10.4336 35.9828 10.4498C35.8443 10.6418 36.1425 10.6088 36.3703 10.625C36.4033 10.9383 36.7218 10.9195 36.6064 10.6406C36.5933 10.6101 36.416 10.6393 36.3703 10.625C36.5702 10.3176 36.9204 10.2782 37.3071 10.5655C37.4881 10.7001 37.317 10.8571 37.8669 10.7997C38.1165 10.7738 38.02 10.558 38.2403 10.4992C38.7434 10.365 39.3972 10.5663 39.916 10.5346C40.1042 10.523 39.9208 10.405 40.0495 10.393C40.391 10.361 40.6921 10.4496 41.035 10.4042C41.0661 10.3999 40.9902 10.2763 41.0968 10.2747C41.9053 10.2604 42.6092 10.3396 43.4533 10.3417C43.8611 10.3428 44.5903 10.2746 45.0127 10.2883C45.745 10.3113 46.6458 10.4911 47.2713 10.4474C47.6793 10.4194 47.5898 10.2958 47.7646 10.2116C48.1019 10.0483 48.699 10.3408 48.7794 10.3861C48.7819 10.3876 48.4308 10.4167 48.6181 10.4802C48.727 10.6124 48.7755 10.3866 48.7794 10.3861C48.7832 10.3881 48.7902 10.3902 48.8 10.3922C48.9776 10.3915 49.7825 10.5586 49.9451 10.6259C50.0447 10.6502 50.0344 10.5208 50.087 10.5369C51.3534 10.9166 52.329 12.2307 52.2837 13.6061C52.2818 13.6298 52.1503 13.5976 52.1471 13.6516C52.1463 13.6636 52.1455 13.6756 52.1447 13.6875C52.0942 14.2232 52.2509 14.5717 52.3445 15.0186C52.4397 15.4727 52.4078 15.8328 52.1829 16.1016C52.2112 16.4442 52.1117 16.9357 52.0514 17.2185C51.9911 17.5014 52.2461 17.5408 52.2512 17.5657C52.4126 18.3419 52.2666 18.7906 52.2438 19.5959C52.2326 19.9788 52.2696 20.7382 52.2975 21.1528C52.32 21.4804 52.2602 21.6778 52.2984 21.9796C52.3035 22.0205 52.4171 21.9792 52.4214 21.9917C52.5573 22.3286 52.2797 22.1667 52.2301 22.2362C52.0498 22.4884 51.9537 22.6442 52.0386 23.0756C52.058 23.1752 52.4578 23.465 52.4811 23.6464C52.5108 23.8823 52.3675 23.7933 52.4022 24.0402C52.4051 24.0614 52.4935 24.057 52.4896 24.2094C52.4726 24.9169 52.4212 25.6882 52.4301 26.4234C52.4309 26.5238 52.5711 26.3951 52.5747 26.5402C52.5913 27.221 52.5861 27.9673 52.5205 28.6306C52.5039 28.7939 52.4057 28.6915 52.3766 28.727C52.2002 28.9446 52.4565 29.2531 52.4614 29.304C52.5845 30.5185 52.3526 31.448 52.463 32.6858C52.4695 32.7532 52.7442 33.2719 52.5086 33.5033C52.4929 33.5191 52.2519 33.748 52.4167 33.9505C52.427 33.963 52.5511 33.8204 52.5384 34.0693C52.5258 34.3183 52.6087 34.7189 52.4724 35.0611C52.4294 35.1695 52.1889 35.4256 52.3806 35.7487C52.394 35.7698 52.8274 36.2687 52.5284 36.4468C52.4792 36.4756 52.1627 36.4454 52.325 36.8311C52.3564 36.9048 52.427 36.771 52.4711 36.9652C52.539 37.2626 52.4542 37.6568 52.5952 38.0224C52.5988 38.0317 52.6064 38.0453 52.6163 38.0625C52.6777 38.2143 52.7901 38.6031 52.5872 38.8698C52.5505 38.9167 52.4705 38.7973 52.4183 38.966C52.1691 39.7589 51.713 40.5625 50.989 41.0061C50.7334 41.1553 50.7612 40.9332 50.4905 41.0425C50.219 41.1566 49.675 41.3078 49.3914 41.4247C49.1006 41.5445 49.4828 41.7802 48.9908 41.8431C48.9276 41.8491 48.864 41.8532 48.8 41.8556C47.4445 41.9332 46.1007 41.7821 44.7465 41.7594C44.5395 41.756 44.7111 41.8534 44.4061 41.8552C43.2816 41.8625 41.3402 41.9538 40.3645 41.7468C39.5827 41.581 40.5665 41.4548 39.9691 41.3874C39.6808 41.3552 39.3689 41.6717 39.2994 41.6816C38.6195 41.7828 38.1471 41.6426 37.5352 41.6857C37.4088 41.6946 37.5327 41.8228 37.4252 41.829C37.0579 41.8513 36.6718 41.794 36.3208 41.8045C36.1633 41.8095 36.1923 41.9075 36.0474 41.8999C35.7007 41.8829 35.3941 41.8417 35.0562 41.7499C35.0254 41.7416 35.2331 41.6197 34.9766 41.6152C34.5614 41.6082 34.0461 41.5176 33.5684 41.6111C33.4267 41.6393 33.4212 41.8632 33.1165 41.7085C33.0526 41.6763 33.1342 41.4074 32.7793 41.6397C32.7196 41.6783 32.1235 41.9916 31.8309 41.7897C31.7538 41.7365 31.5568 41.5165 31.3864 41.5511C31.3632 41.5566 31.4558 41.6769 31.3146 41.6886C30.8169 41.7278 30.2953 41.715 29.784 41.7527C29.6474 41.763 29.8508 41.8874 29.6473 41.8988C29.0877 41.9302 28.389 41.8986 27.8417 41.8596C27.64 41.845 27.7794 41.7419 27.7647 41.7307C27.5286 41.5482 27.3891 41.7945 27.3107 41.8089C26.8234 41.8949 26.4523 41.7792 26.0031 41.8098C25.8792 41.8179 25.9671 41.9354 25.9424 41.9458C25.6865 42.0482 25.8771 41.8373 25.7151 41.814C25.2613 41.7482 24.7555 41.7576 24.2965 41.7726C24.128 41.7783 24.3174 41.9145 24.1661 41.918C23.2708 41.9415 22.34 41.9285 21.4662 41.8534C21.3016 41.839 21.4051 41.7341 21.3709 41.7102C21.1345 41.5426 20.7881 41.7712 20.7084 41.793C20.346 41.8924 20.2053 41.7996 19.8852 41.8169C18.3218 41.9031 16.3915 41.8417 14.9157 41.8038C13.9322 41.7788 13.0614 41.7405 12.2 41.7125C10.9723 41.6894 9.76964 41.0398 9.08029 39.9004C8.99249 39.7504 8.9581 39.9734 8.88076 39.8398C8.57755 39.2995 8.42113 38.6755 8.42349 38.0625C8.42583 37.1719 8.44325 36.2846 8.41541 35.3865C8.41235 35.2798 8.28011 35.4336 8.27076 35.2624C8.25064 34.9112 8.25783 34.4664 8.30005 34.1114C8.3204 33.9382 8.43387 34.1705 8.45203 33.9962C8.49457 33.5903 8.50399 33.1552 8.48279 32.7383C8.47348 32.5609 8.33823 32.8286 8.33667 32.598C8.32326 31.0272 8.29996 29.4845 8.4751 27.8971C8.48713 27.7883 8.762 27.6928 8.70929 27.4614C8.63301 27.444 8.54327 27.4449 8.46173 27.4373C8.41781 25.1506 8.5131 22.8873 8.52783 20.5942C8.52843 20.4975 8.38278 20.6646 8.38318 20.4774C8.38534 19.394 8.34499 18.342 8.48975 17.2338C8.50391 17.1239 8.76013 17.1803 8.72138 16.8563C8.71431 16.7991 8.68013 16.3111 8.62451 16.1849C8.61613 16.1678 8.49653 16.2568 8.49304 16.0996C8.47734 15.3091 8.49564 14.4858 8.54817 13.6875C8.55635 13.5018 8.57943 13.3179 8.61679 13.1385C8.66474 12.9251 8.75092 13.1738 8.7873 13.0269C9.02971 12.0018 9.75576 10.9622 10.7225 10.6388C11.3585 10.451 11.2135 10.7614 11.5604 10.8869C11.6075 10.9018 11.9505 10.8566 11.9757 10.9861C12.0351 11.2989 11.9414 11.6564 12.026 11.9877C12.0418 12.0548 12.3055 11.9715 12.1528 12.1501C12.1412 12.1598 11.968 12.2339 11.9417 12.3025C11.923 12.3481 11.9912 12.4654 11.953 12.5269C11.9192 12.588 11.8374 12.4975 11.7812 12.5847C11.7317 12.6733 11.8166 12.7904 11.7127 12.8676ZM51.7817 18.4921C51.6592 18.754 52.1078 18.7926 52.0005 18.5093C51.9948 18.4956 51.7877 18.4786 51.7817 18.4921ZM25.7484 10.7792C26.0908 10.9771 26.3251 10.6861 26.0835 10.5333C25.842 10.3806 25.6441 10.7192 25.7484 10.7792ZM22.198 10.9237C22.5981 11.0797 22.6611 10.4435 22.2325 10.5721C22.2076 10.5794 22.1746 10.9146 22.198 10.9237ZM10.377 11.5472C10.3826 11.5469 10.5781 11.4024 10.581 11.3963C10.6067 11.1969 10.1938 11.5 10.377 11.5472ZM18.6748 11.0809C18.7997 11.167 19.1594 11.0677 19.0042 10.9606C18.8792 10.8746 18.5192 10.9739 18.6748 11.0809ZM51.3029 32.1538C51.2962 32.1579 51.2902 32.3098 51.3279 32.3067C51.4497 32.2964 51.4153 32.0851 51.3029 32.1538ZM12.6868 11.0883C13.5715 11.1122 14.1079 11.6377 13.1444 11.5784C12.97 11.5677 13.5204 11.4109 13.2984 11.3635C12.8921 11.2772 12.6223 11.6071 12.2076 11.4303C12.1325 11.3979 12.6363 11.0857 12.6883 11.0875C12.6878 11.0878 12.6873 11.088 12.6868 11.0883ZM51.2428 18.6429C51.2369 18.6481 51.2312 18.8583 51.2371 18.8633C51.3796 18.9772 51.391 18.5537 51.2428 18.6429ZM49.5855 40.1431C49.5734 40.1455 49.1446 40.2452 49.1298 40.2483C49.0285 40.3783 49.2087 40.4267 49.3916 40.3847C49.5746 40.3442 49.7244 40.2192 49.5855 40.1431ZM43.4308 11.5755C43.2014 11.7188 42.9271 11.7357 42.7442 11.5557C42.9722 11.5653 43.2016 11.5667 43.4308 11.5755Z" fill="black"/>
</svg>
